<mxfile host="www.draw.io" modified="2020-02-04T03:09:01.068Z" agent="Mozilla/5.0 (Windows NT 6.1; Win64; x64) AppleWebKit/537.36 (KHTML, like Gecko) Chrome/74.0.3729.108 Safari/537.36" etag="c4vmlrGAuq0Bn8nEDD2r" version="12.6.4" type="github">
  <diagram id="YF9kfQXZbPxqNRdb_Pep" name="第 1 页">
    <mxGraphModel dx="1422" dy="762" grid="1" gridSize="10" guides="1" tooltips="1" connect="1" arrows="1" fold="1" page="1" pageScale="1" pageWidth="827" pageHeight="1169" math="0" shadow="0">
      <root>
        <mxCell id="0"/>
        <mxCell id="1" parent="0"/>
        <mxCell id="KrK7GOKBKflkeKm778M2-1" value="" style="shape=image;verticalLabelPosition=bottom;labelBackgroundColor=#ffffff;verticalAlign=top;aspect=fixed;imageAspect=0;image=data:image/png,iVBORw0KGgoAAAANSUhEUgAAAi0AAAIcCAYAAAA6z556AAAgAElEQVR4AezdB7hkRbU24PKKCSSD5Cg5M+QhhyFIzkFAMCASLpgDAiYEEbwqoAgISpY05AwDQw4Sh8wQlZwlXfW//s9b3jp303PmxN2nu89Z63n6dJ/uvWtXfZW+WmvVqg/961//+lcKCQQCgUAgEAgEAoFAoM0R+I82z19kLxAIBAKBQCAQCAQCgYxAkJZoCIFAIBAIBAKBQCDQEQgEaemIaopMBgKBQCAQCAQCgUCQlmgDgUAgEAgEAoFAINARCARp6YhqikwGAoFAIBAIBAKBQJCWaAOBQCAQCAQCgUAg0BEIBGnpiGqKTAYCgUAgEAgEAoFAkJZoA4FAIBAIBAKBQCDQEQgEaemIaopMBgKBQCAQCAQCgUCQlmgDgUAgEAgEAoFAINARCARp6YhqikwGAoFAIBAIBAKBQJCWaAOBQCAQCAQCgUAg0BEIBGnpiGqKTAYCgUAgEAgEAoFAkJZoA4FAIBAIBAKBQCDQEQgEaemIaopMBgKBQCAQCAQCgUCQlmgDgUAgEAgEAoFAINARCARp6YhqikwGAoFAIBAIBAKBQJCWaAOBQCAQCAQCgUAg0BEIBGnpiGqKTAYCgUAgEAgEAoFAkJZoA4FAIBAIBAKBQCDQEQgEaemIaopMBgKBQCAQCAQCgUCQlmgDgUAgEAgEAoFAINARCARp6YhqikwGAoFAIBAIBAKBwBR1Q/Dkk0+mV199Nf3Hf/ybD/3zn/9M8847b/rUpz6V3nrrrfTII4+kD3/4w5M89v/9v/+XFlpooTTttNOml156KT311FNpiik+mL1//etf6UMf+lBabLHF0sc//vH09NNPpxdffHGS6/7nf/4nfexjH0uLL754zsejjz6a3nzzzUme65nTTDNNWnjhhZN7HnjggfTf//3fXXkvmVSGWWaZJc0zzzz5d9eVvJRrvLvONa6tu6zPPPNMeuGFF7ot60c/+tG0xBJL9Lms8j5hwoQ+lfXBBx/M2MC9KnWXVdrqS73WXVb19f7773dbr9ql9vn3v/8917920F1Z55577jTrrLP2Wq8LLrhgmm666dLLL7+c9IXu2vBAyvrYY4+lN954o9s2PPXUU6dFFlkkt8k6y/q3v/0tPfzwwxm37jDRX/tSVv31E5/4RHr22WfT888/PwkmMNeG1b+xoY6yzjzzzGm++ebrc70qq7FJOdutrNqL/jq5Ntzfsr799tu5Xnsr6yuvvJKeeOKJSerL+EFKvf7lL39Jzz333CTXqdePfOQjeWzqrV4/+clPpkUXXTSnqw2/99573fbXvpZ1rrnmSrPNNlvqraz66/TTT58GW1aY6OvGYWV9/PHH02uvvdYtJlNNNVW/yvqPf/wj1//kxqa6y6oeppxyyjS5ei1l1V+VuY6yzjTTTGn++edPyqr+zc3Vfmhe0N7IB1lB/mrgf4B60UUX5YnbQ4jJwMRQPiMkjQO53wq58VmDRUYMZFUBloIoEDHQSE/HqIp8GCRL5zLYm0Qan+uZri2CbL377ruTTAyAVInEs6VV8lLu9d7ssnaHifzDuj9lda0O9c4773RbVthVy+oZ1QZUymoAKZ97qldEjvRUr35XH8RAM9iyljYiPfVaV1m1hVaVtbvnwqyvZS19srThydWrAYRoz55pEG6sfzj0tV5L/vpTr5Mra2kjvdVrtawmJHloLIPylbKWerXYaryuWlbEobu2WfpfyV9PZbWgKtcbm3ora+mv0lQXVZE36RFl7EtZS732Vlb9Vd4ax9eS9/6W1cJxcmVVjiL6a29l1XZ7KuuMM86Yk+utXi1GiHqdXFmVF0EnvdWrfKmjUtZG7NQRol/EOGwe66leS1nhXZQB5X51OcMMM+R/6yorIkd6Kqu5ubSDvpb19ddfz4u+7spa5vpSVmWplnX8+PHpkEMOyfn60L/Kk/O/g/ujQsaOHZu22WabwSUUdwcCgUAgEAgEAoFAIJBStjLQdJNaSYsEMaRGdhmoBwKBQCAQCAQCgUAgMFgEanfEDcIy2CqJ+wOBQCAQCAQCgUCgIHDbbbeVj6lW0sIeddVVV2UHz64nxIdAIBAIBAKBQCAQCAQGiMD111/fdWetpIV7jJ0ffFtCAoFAIBAIBAKBQCAQGCwCZXOIdGolLRLkBdzofT/YDMf9gUAgEAgEAoFAIBAI1E5aAtJAIBAIBAKBQCAQCASagUCtcVqakcFIMxAIBPqOgHg0Yjd42cnnndlWLA9O8l60oYJ5hQQCgUAg0GkIBGnptBqL/AYCFQQQEtFI+ZIJVFbCLnkvL5cz2RazbXkX5GrOOefMr2ogp0ry8TEQCAQCgZYjYJNPkdpJi9VdGTjLQ+I9EAgE6kNABxYO/6GHHspERfRXx1GI7omI+J9mpWhXPLloXUT+dFQFgiOi6L333ptuvfXWfHyG8N1zzDHHJNE568t5pBQIBAKBQP8RqIZSqTW4nMH0sssuS+utt15XaOn+Zy/uCAQCgckh4Lwt50E522qBBRZIzh1h6inHTEzuvsl979gK4bppa5z5g/A448O5PaF9mRxq8X0gEAgMJQLGqGLSrpW0DGUh4lmBwEhCwOFl9913Xz5DCaFYeumla488LVTB/fffnw9A4/ey1FJL5cMkRxLOUdZAIBBobwSCtLR3/UTuAoF0xx13pIkTJ2bNilNky2GAzYKGKclJq8xPNDmjR48OrUuzwI50A4FAoFcELr/88rThhhvm62rd8lwOTGQ3DwkEAoHBIWAn0KWXXpqPiB8zZkxafvnlm05Y5Jj9eJlllkkbbbRRPiH7wgsvzOaowZUm7g4EAoFAYGAI0AAXqZW0SLS6g6E8JN4DgUCgfwhwtEUW+KpsuummacYZZ+xfAjVczanXs2eeeeZ00UUXpWeffbaGVCOJQCAQCAT6h0BVu1w7aZliito3JPWvdHF1INDhCLzwwgvpmmuuSXbzrLXWWqmVfYoz7qqrrppGjRqVxo0bl7dWdzi8kf1AIBDoYARqJy0djEVkPRBoOQKvv/56uvbaa7OjLRNNuwgCtfLKK6cbbrghvfTSS+2SrchHIBAIjDAEgrSMsAqP4rYvArYf07AsuOCCackll2y7jC600EJ5RxFSZct1SCAQCAQCQ41AkJahRjyeFwh0g8A///nPNH78+Ow/ssIKK3RzRXt8hUzZcn3dddelcLhvjzqJXAQCwx0B42OR2kmLaJsREbfAG++BQN8QeOSRRxJNy2qrrda3G1p41YorrpiPBBDkLiQQCAQCgWYjMMMMM3Q9olbS4kwTKuRWOg52lSw+BAIdggCNBQKw3HLLdUQIff2cNkjsmL/97W8dgnJkMxAIBDoVgV133bUr67WSFjsN1lhjjXyKbNcT4kMgEAj0iIBAbkJUzzPPPD1e104/zjrrrMnqR5TekEAgEAgEmolAOeTVM2olLRKk4g7zUDOrL9IeTgg4U+PRRx/NgeM6rVyC3Tld2o6nkEAgEAgEmoXAn/70p66kayUtIuKef/754aDXBW98CAR6RgBhmWWWWbIDbs9Xtt+v0047bQ7zT1MUEggEAoFAsxBw9lqRWkmLRJ1bEhIIBAJ9Q4CmYs455+zbxW141RxzzJHjtlS9+9swm5GlQCAQ6GAEHOBapHbSEsfZF2jjPRDoGYFXX301X0DT0h9hfh2ICdaCou5Fxac+9anseP/iiy/2pwhxbSAQCAQCA0IgYu4PCLa4KRAYPALO8vnEJz6Rpplmmn4lxm/shBNOSFtvvXXW0tx5553p5ZdfzjuPnNFhN9L//M//5DQXXnjhHFfFP1dccUU+cHG99dbrep7rqgSIw1t/Fh5TTTVV8qK+pXUJCQQCgUCgmQgEaWkmupF2IJBS3hqMGCywwAJdeCALNC00FVXP+K4LeviAmLj/61//evrpT3+aHnvssXTPPfdk8nHHHXfk7cgf/vCH8zVTTz11fsb111+fLr744kyS3nzzzfSxj30srbTSSmns2LF5BxD1K7IjBstuu+3Ww9Mn/QlZefrppxMTUX/CHdh5hFTJS0ggEAgEAn1BIEhLX1CKawKBQSDgxGak4Utf+lImEJJipjHJO0m5v4KQfPWrX02nnHJK9ifZcsst0+abb57uvvvuvHvvoIMOytoSxAYZcfK65z/55JNZ0+J/vjQ/+MEP8j2i3C622GLpqaeeSrQ2/SUtNEXKgvTYut0X8RzHATiyICQQCAQCgZ4QELS2SO2kxcBVVTeXB8V7IDBSEUAcmILOOeectPPOO2dzENKCVFSPXO8rPjfeeGNChHbZZZdMRvbff/9sGhLsTf/zP+2FwG+jR49Oe+yxRyYov/nNb/Iupc022yx985vfTB/5yEcyyXCSNNLy17/+NT388MN9zUbXdUXzY/dgX8RuowsuuCA/HwELCQQCgUCgJwQ+/elPd/1cqyNuiZRpMAwJBAKBfyPARwRxeeKJJzJx4ZPiO9oJPi39FWSHluK3v/1tFwnR96S1zz775MMMfd5qq61ylF3P8j9SMeWUUyYmI0RDP7XAkB/yzjvvDGjBwadFWfri5EvbIywCQuX5QVr6W/txfSAw8hCgTS5Sq6bF4LjMMsuUtOO9yQiYvP7+97/32yeiydmK5BsQUEcmZ5P0Qw89lC666KK08sorZ4Jgwu+viDo988wzp1tvvTU7v9K6aAt77bVXjkg911xzpTPOOCNH2GX6QVY8v2hCEIw6hVZHmsrZk9A2nXfeeTkYHRJXCJPPIYHAcERAG9e+zY0hA0fA2FLGiVpJiwqyi2GmmWaKShp4/fT5Tg6Yp512Wp6wTFoh7YtA0aggD3fddVfWNMw444yZyAw019NPP30699xz080335xNRRxiDz744HTYYYdlgnLooYdmR1cOu4iFvrnqqqtmjUjdB5tqfz21QX40CItdRgUL0YDlMSQQGI4IICpeTMLO5AsZOAInn3xy+uIXv5gTqJW0GLQuueSStMMOO3QNTAPPZtzZGwLU8a+99lr2W+jvttne0o7f60NADBOnONtZo4+YtJ3dg+Srw4GYU5ma7L753Oc+l31k+LnsuOOO2TFXH6T5mG222dL666+fnX052do1ZLcOM5AXE5E8lFXgYEw10ujpfmVXZqSlkBvPHzVqVNfz60M8UgoEWo/AW2+9lRcUfTGbtj637Z0DC5witZIWifY0cJWHxns9CPBj8BozZkxHhoGvB4X2T+Xee+/tOljQ5L3RRhslZhs7enRGGpP+CDOPrc0OWPQ6/PDD0xZbbJHbgkMM/cZxzWc+JKuvvnr+znMEsuNwizjxb0EgaF2oXznxDkTcp1w9kS+7iuRR3mmaCNLCKTgkEBiOCFis3HLLLWG+r6Fyq7yidkObSTRkaBF47733hvaB8bR+IYAUFO3COuusk/1ZdEJ9ZSB1R0tCc7LccsvlrcuOAUBcmWCQB35lTEEbb7xxjgVj8BSPhWmIeKbVH9LCCffII4/MMV9++MMfZgLTr8L9rwNvb6RFmkxUSMoiiyySnw+T3vxg+puXuD4QaBcEBroIaJf8t2s+ate0tGtBI1+BQKsQYIKhYeBAW6LRIixMKgMZ2J577rls1hGsDvH4yle+krUt4rTQ4NCszD777Jm8OIn56quvzvFQll122UxQ7r///qyhoXVBgBZffPFsNhIgjrNsfwUpUxbEpTehcRHJ13PjdOje0IrfA4FAoBGB3keZxjvi/0AgEOgXAgiL6LMbbrhh13084b0GMnHbOSS4HMJCmGWQFRoMz+Hg61XEdyLdEgSF6cj/iBMnXTFaaEFoPh588MFyW5/flUFZmHv6IsxU22+/ffZ/43tTdgX05d64JhAIBEY2AkFaRnb9R+mHAAFkAlmoaiIQBsSCfwlNjP/7Ko2kxLZpfjKTE3FZilSJk+9oX4rQliyxxBLl3z6/KwMiUrU793Yzp1xRfJGlkEAgEAgEekKgakav3ael7q2UPRUkfgsEOgEBDrHTTjvtJFmde+65sw/JQLQtkyTWoi8EiTOgiA3TXxEaoT9Ep7/px/WBQCAwPBAommKlqZW0WKmtu+66sXoaHu0kStFkBJw7pM9wlO1Ueemll7K/joMfQwKBQCAQaAYCjhopUitpoeKeb775YvVU0I33QKAXBOadd94BOb/2kuyQ/SzuCqdf5CskEAgEAoFmICAeWZFaRxq2eYe2cTwMCQQCgd4RcMqxDikUf6fJq6++muxk4sgbEggEAoFAsxA49dRTu5KulbTYfTBu3LgBxXroylF8CARGEAKCvJn0b7/99o4r9Z133pl3IkU05o6rushwINCxCNRKWqBgN0B/dkJ0LHKR8UCgJgSE1kf4H3/88ZpSbH4yzzzzTD4/aSC7jZqfu3hCIBAIDCcEqpyidtIynIBq97KUiizv7Z7fyF/3CCD6tC2Cw3VChFixVWhZHAJXYsV0X7L4NhAIBAKBehEY8XFarHD54nSiFN8h7+Vzp5UD4QonzpREt+Uf4jwiUXPbmYjedNNNmawsuuiindbcIr+BQCDQ4QiMaNJy4YUXphdeeKFjT6R21gzCdfnllycBxjpRhHM3YZfw9p1YhjryLF7Jaqutli677LKEFPjcjuIwxldeeSWfa9TTAYntmPfIUyAQCHQ+ArWTlk7SWgjqJUKosOidKFbmyMoGG2yQT/TtxDI4+M8pyCH/DsfvQEXEBTlYYYUV2gqW++67L/vd6DN9DdnfVgWIzAQCgUBHIlCNiFs7aWFu6RSxUjTp28HRieIMGa9OFvhXw9t3clnqyLsDBQVopD1j8lt55ZXrSHbQafC3mTBhQibIQvaHBAKBQCAwVAhYmBep1RGXb8Kmm27aURFxO4lklUobTu+B/6S1Key/s4Sc6UPrwoTWKuEYfM0116RHH300E5aIfNuqmojnBgIjF4Gll166q/C1khbOgw5zC8fKLnzjQyAwIARoM8oCgO+VyLNDLS+//HK66KKL0j/+8Y+02WabpSAsQ10D8bxAIBCAwJNPPtkFRK2kxar5rrvuyoNc1xPiQyAQCAwIgY9+9KOJj8tSSy2VrrvuuryzyAGFzRb241tuuSVdeeWVaf75589+X51qQm02VpF+IBAINB+Bc889t+shtfq0cML985//nBZZZJEUOwu6MI4PgcCgEFh88cXTLLPMkjjCXnzxxcnp0EsuuWSqOxLt22+/nR588MF8FAeNqR1dnhsSCAQCgUArERDLqkitpEWidhW0c4yJUvBWvr/55pv5vJl55pmnVlMaTVeY5lpZs8179kwzzZS1Lkw2dltdeumlaY455sikgtnGidEDEZob2/5tY3722WczEaLdkWb044EgGvcEAoFAMxGonbQ0M7PDJW2rWbtDvve97/XotMyPweTBTFDEwXrU99T2Rd5///1EfbbmmmumOeecs3ydHn744XTcccelLbfcMq2++upd31c/MOcJEhbq/yoq7fvZ9nwaECTjoYceyg6y3pFVv9GMiFJr8aBOS9uxE+ndd9/NL+3H/S+99FIS3da9tDbaT2hW2rfuI2eBQCCQUpCWJrcCE8VPfvKTvANEADGrV6fjmjS++c1vdm33dd3o0aPTrrvu2pUjJ1syA2y88cZd351xxhl5VV1Ii0kHubn66qvz/SYkk5UdJ65lpuPIyS9i2mmn7UrHBw6WV1xxRV61f/e7303yF9IZCNC8FCKKfHhpV3b5qNfq67//+79zO7OdGomxxVwbYWaSDqISWpXOqPfIZSAw0hEI0tLkFoA0IB0mERMD2xz1Pv8E34tTYhWMfMw+++w5N4iHuBjuPfroo/MkQ/3PX4hDJmJzzz33pGWWWSbddttt6dhjj82q/UMOOSTNOuus6etf/3o688wz03LLLZd3ffz2t79NRxxxRPr+97//Ac2OyWvPPffMv51//vlp6623bjIakXwzEKCN8yK2KGtP5cVkeM4552Tv+29961u5LSGnRQPTjPxEmoFAIBAINAuB2klLxN34YFUhHla6NCE+IwpMPF7jx4/PkwdCQz3v0DzCrPPDH/4wrbLKKmmllVZK5513XhI5lhln1KhR6fbbb0+0MKeddlqaa6658krZFllByfgoIDG2iD399NP5YDt+ECazQw89NG277baJYydBoty3ySabJIRHIDN+EiGdi0B3ZKRoWKaeeurOLVjkPBAIBEYsAtWDZGsnLd0NmiMW6ZTyipevgZDsxfxi8qBZoSmheUH0vPMtsAPLKlmk2y222CL/hsQgGKICWlEzJZ188smJLwsVfzEV+Y1GxvP4J3CwNGFJe8EFF8xn2nRXPzQ4zzzzTN6Z8uUvf3kkV9ewLHs5WsN7mIGGZRVHoQKBYY3ANtts01W+WkmLSZnTp0ky5N8I0LBccsklWaOClCANNCD8D2699dZMZMpE4v/9998/Ew1+KmeffXaeZByM6JwhkUk5WNLMvPXWWxln736bb775sklp5513Tsccc0z+3zM++9nP5mfQ9iA7yEtVXnvttWyu+vGPf5z9W2h05p133uol8TkQCAQCgUAgEGgZAnbaFqmVtEg0DlIr0P77nfmG2QUxgY2gXZwmETvmIGYhK2A+Lssvv3z+ngaF1mSttdbKidCCIB3MRa6npTnrrLMyGeEfw1z02GOPZU2NdGlmll122UyK+MbccMMNWfNil0mj8GWhjdl8882zX4z/EaeQQCAQCAQCgUCgHRAwj5nTSO0RcTmKVu1P7VDgVuYBMdlpp53SjjvumLUctCR2E2211VbZn4TzK20JX5QVV1wxb1dFTPih2PXjxfdFDA3bpP3Px4UJyQ4QZzLQkiA8iM4CCyyQnF49duzYbB6i2aEBo+Up5qmCx/3335/PtqGdIdttt132gbn55pvLJfEeCAQCgUAgEAi0FIGrrrqq6/m1alpoDCZOnJgn3+58J7qeOoI+ICkOvkM2HH7H0ZV/C5LxjW98I2tMHI5n+zOy4loYMrOV3UQ0LXYJ8WkpmhnX+c6WVc60tq3edNNNWesimil/mGuvvTYTSFqaRgdp9yM7zrexy4ggPYgL8xINkVdIIBAIBAKBQCDQSgQs0IvUSlokiqwUH43ykJH8Lm7Gj370o6wR2WOPPbIZiCaE9oSzLaxscaZpERhuwoQJ6YILLsg4Mv3YbeR6fivjxo3LJiYExEva7kFAmH6QDJoX5MW5MRxxkRwkycnBtDOEKeqXv/xlWmKJJTJJqdaPbdgPPPBAOvDAA7OZiLNwSCAQCAQCgUAg0A4I1E5a2qFQ7ZSH2WabLWtRaFbuvPPOdPzxx+d4KTQjPKKdnnviiSfmLccIB1NN8WVRDiYdMVn+9Kc/pf322y9rVIrWBOHxco1YHI4HsO3Z+TRMUD/96U9zHBiaFJFvaVxobQ4//PDsqCtuR6MPkrS++tWvpp/97Gfp4IMPztuky1bsdsI18hIIBAKBQCAw8hAI0tLkOqfh8CIcXpGKNdZYIzsV0aIQQd840trtw9wjnktV3G93EK1J42/lOqYkBIaTLhMU51vmOqYiUW/tYBozZkzeDv3tb387+740EpaSlu8dMWArdMRtKajEeyAQCAQCgUCrEQjSMoQ14PRrr0bhJLvwwgs3ft31vzgse+21V9f/3X1YbbXVur5GSpiCNtxww/xdcQQujriOBuhNkCO7nkICgUAgEAgEAoFWImABXqR20mKlH9J6BApBkROkKCQQCAQCgUAgEOhEBFgRitQ+mzFlVB9QHhTvgUAgEAgEAoFAIBAI9BeBEpbDfbVqWqzuBSkLCQQCgUAgEAgEAoFAoA4EhPUoUrumpSQc74FAINBZCLz99ts5to/jHorYqcbkW17l++7e7V4TnTkkEAgEAoE6EXCETZFaNS2cPy+99NK8S2VyO1PKg+M9EAgE2gsBzm62y6+++uo5Y0cddVSO2eMQTuTF74jJQQcdlGadddb8ubr93nlZTiffe++9c4DJ4jzHXGznXIwJ7VXfkZtAoFMQsJPVzltSK2mR4CuvvJIHt04BI/IZCAQCKT3xxBM5eKHjIk4//fR8Avnzzz+fD+e01Z6mBfl48MEH8840AQ3F8rFN33lXtu+7hpbm6KOPzkEPnaHlO799/vOf/0D8ocA8EAgEAoG+ItDUiLgl9khfMxPXBQKBQOsREHUZIRGZ2YGbgh/a9t7YnxEUGtWZZ545n6eFlNCoOB2c9oVGxdljAiI64Mz9rl9ooYVaX8jIQSAQCHQ8ArVrWjoNkVBZt7bGAv/W4l+eLmqyYyAOO+yw9IUvfCEHObz++uuzJmWqqabKxMO1SA2T0NRTT91lRjrppJMS09Duu+/etXPQERMiQO+zzz45KnN5TrwHAoFAIDAYBEY0aaHKdqJxiVg7GCBbca/4K1ayVrvFt6AV+RjMM52p5HiBkNYjoC29+OKL6YgjjkjbbrttGjVqVD63SnBDbUx7c4p7iQFEu/LrX/86vfTSS/mcqmoJRo8enc4+++xMgBwXIa2QQCAQCAQGi8CIJi0ivlohvvHGG4PFccjvN4HwGXj66afTvPPOm/0KOpG4MDfE2UZD3nwmeaCDOo899tjsXLvjjjsmh3U6cFM7u+WWW/IBntoXwuIU8O233z4TfloYh2tedNFF+ZTwueeeO6fxu9/9Lu277775GsfKO3hTWiGBQCAQCPQXASbmIrWTFvbssmugPKRd351y7NWp4tRnhGvKKacMJ8dOrcQ2yffLL7+c+wI/lvXWWy+fTWX7Mt8Wffrkk0/OzrT6No0McuLlbCv/01hywD3ggAPSCSeckP1bkFEvzroRcLJNKjqyEQh0IALM0UVqXfoYmBzsZxALaR4C7733Xjr33HPTZZddll577bW8zdz/NC8hgcBAEFhzzTWzSUgfZjZ1RhbT3UorrZQ22WSTbB664IIL0nnnnZdoZZAZr9LX+bMIALXllltmp9xvfOMbXdlAbIK0dMERHwKBQKCfCHzuc5/ruqNWdkH9u84661Es4GkAACAASURBVHQlHh/qR4AjpMnD7gwThhe1PRU+0rLZZptlJ8n6nxwpDmcEiulGW6Jtuf/++9PVV1+dD/JcddVVs2PuFltskduak8ir8tZbbyVOu9om4oKg0AIiOyGBQCAQCAwWgbI4kk6tpEWCnCo/+tGPxspqsLXUcD+1PCfJsWPH5pWuicXkwMeAk6QXFb3gX1tvvXX2L4jVbQOI8e9kEaBVGT9+fNayiMFy2mmnpa222irddNNN6fzzz8+EeLbZZsukhX154sSJmaSIVPnYY4/l3UWcd2lYxHw544wzsiZwqaWWylufmYlshw4JBAKBQKC/CLAkmNdIraTFYGaAc/5QbGXtb7X0fD1SYvVLxL9ASN55551kgmGSgzdi849//COTmrXWWqtrl0fPKcevgUBKjz/+eNasLL/88ol/Cyd1mhXBIpkhb7vttvT73/8+tzHO0waQhx56KJuIxowZk53BBaEjduMtuuiimcy4T5TdhRdeOGAOBAKBQGBACNipWKRW0iJRJopOccQtIHTCO82KycGryCOPPJKEWrcitgoOCQQGisAaa6yRvBqFKWiXXXbJr8bfVllllcavuv63q8iOIa+QQCAQCAQGgwDrTZFaHXElWmzj5QHx3jwEaF9oXGhXQgKBQCAQCAQCgeGOQO2kZbgDFuULBAKBQCAQCAQCgdYgEKSlNbjHUwOBQCAQCAQCgUCgnwgEaeknYHF5IBAIBAKBQCAQCAwdAgJcFqmdtIQjboE23gOBQCAQCAQCgUBgsAg4zLVIraSFU6jtuHa6hAQCgUB7IFDi9ZT39shV5CIQCAQCgb4hsN1223VdWOuWZzuHxHkICQQCgdYgIFaSXWXVCJLlIM2y20zOXIfExAKjNfUUTw0EAoG+I2AMKzuTayUt4rO8/vrrabrpput6QN+zFVcGAoHAYBF4/vnn04UXXpgPKRQEjghCiLD84he/yP8jLMTBiCussEL+HH8CgUAgEGhXBBzYuttuu+Xs1WoewoYcUS+Uf0ggEAgMPQJzzDFHWnfddfOiQbRk0W31RwsKn5Eah2yuuOKKaemllx76DMYTA4FAIBDoJwKUIUVqJS0SDbt5gTbeA4GhR0D/EzL/85//fPr0pz+dyUq1Tzr/Z5tttsnEphplcuhzGk8MBAKBQKBvCFTN3UFa+oZZXBUIdBQCjnXYcccd04ILLphsF6RtmXrqqfORDyuttFJHlSUyGwgEAoFAQaB20lISjvdAIBBoLQIzzzxz2n777bMZaPbZZ0877LBD3t3X2lzF0wOBQCAQGDgCtTriDjwbcWcgEAg0AwHOuPxcqFdnnHHGVPXCb8bzIs1AIBAIBJqJQJCWZqIbaQcCLUDg3XffTS+88EKaOHFidrqde+6502KLLZbGjx+fPvzhD6f55psvE5kZZpihBbmLRwYCgUAg0D8EBK0tUjtpKTsVygPiPRAIBIYGgZdeeikTlRdffDFrVJCTVVddNU055ZQ5A0sssUT6y1/+kh588MH08MMPp+mnnz7NO++82WG36qw7NLmNpwQCgUAg0DcEqjsdayUtgr+sscYaKXYl9K0i4qpAYLAIiLny5JNPZhJiwSBGkg6OsDQKExGS4vXqq6+mRx99ND3wwAPpvvvuS8Jk08ZMNdVUjbfF/4FAIBAItBSB9ddfv+v5tZIWq7WFFlqoK/H4EAgEAvUjIOYK0vHUU0/l18c//vFMRPiu0J70Rfi3rLLKKonaVewWaQlKN9NMM+UdR7POOmuSbkggEAgEAq1G4G9/+1ve/SgftZIWg+kzzzyT5pxzzmw7b3VB4/mBwEAQMHkj4JtuumnX7TrNddddl9Zaa62uztP14xB9sHWZn8qzzz6b3nrrrUxQVl999Uw0+KoMRBATWhmvt99+O2ts7rzzzqwttW16/vnnzw68A0k77gkEAoFAoA4ERMTde++9c1K1khY7E66++uocH6LY0evIcKQRCAwlAmPHjk233HJLJidICkESzjzzzLxlWLyToZRXXnkl+6GIaItk2L682mqrdfmq1JUXgeecHeaFHD3xxBNp3Lhx2WQkYB2zUjn/o65nRjqBQCAQCPSGgGNIitRKWiTKnyWc+gq88d6JCNhVwzfkmGOOSYsuumiaZZZZcptGGIaqbdN6PPfcc+mRRx7JGhDaS0HhEJahIA6i6XohTJx377nnnnTHHXfk72hfmKGGCotObEOR50AgEKgPgeqYVztpqS+bkVJvCIjBQbsVvge9IdW/35lhNt5443xWz4knnpi++93vDglRkEumn6effjpvWWby4SPGdNMqzSUfF6/FF1882ZU0YcKE9PjjjyfEzlZqeSsHM/YP5bg6EAgEAoH+IzBiSQvVt9Vj9UyD/sPX2js4Y8r/VVdd1TI/i8EgYOcLh1A7ztpJkBYT9U477ZT22muvxG9kySWXbFoWPe+hhx7KzrBIKC0PJ1mOte0iH/nIR7KvGo0PLZD82n1k+7TIu7ZT99UJuF3KFPkIBAKBzkNgxJIWgy7H4QUWWKDzau1/c7zIIovkg+/ee++9hAB0mtiie/PNN6fRo0e3FXlk9hCgjXlEGHxmou9973u1ahT+8Y9/ZNML84/dOzQXtCpIwVD7zPS33fB9WWGFFXKbc5I05/srr7wya4OY05iwWqUZ6m9Z4vpAIBDoLARGLGmheudcKDZFSOsQECcEeWw3KXly6OCNN96YjjrqqJzFqm11IHnm0Gt7sYmexgJJEYOAdmWgO4AGko867pFfJiKvd955J5dLzBcaTMSF4673kEAgEAgEBoOAhXmR2klL1cu3PKRd3612Q1qHQLtGT9aGi+bqE5/4RPrmN7+ZvvzlLyffDzRwImdW2j2kRRqcWWlWmF2GgwhKx+/FS1lF3LUDi78L8mKBMFzKOhzqK8oQCHQSAmuvvXZXdmslLVahG220Ua1q9K6cxodAYIgQmGaaaT4QGZbJY9ddd01nn312v3JAk0KrwgTEV4WPCs1eO/mq9KtAfbyY9sjrzTffzOWHAQde3zFp8n3pNK1SH4selwUCgUATEGCOLlIraeELIJJmSCDQyQj8+Mc/nmRS/fznP5/9W3oLc09Dw/RjF5BDC10vrP5I9POYdtppc9kRtddeey2Tt2uuuSb53rEBXghiSCAQCAQCPSFAe2vRQ2olLfwArKisTDt5V05P4MVvwx+B7ogJLWJPDrJlRw2nWloVu4/GjBkTO2pSymYhsW687JRiOrJ7jwaqOCCH78vw71dRwkBgoAicddZZ6Wtf+1q+vVbSYrC+9dZb866LIC0DrZ64r1MQ4JPjZGW+Km+88Ube+kurwDF1oL4vnVL2geYTLksttVR+2XlEI3XbbbflQHV8fOaZZ54PmOYG+py4LxAIBIYPAlU+UStpAdFQRg3tlCq5++67My40UEUE6nI678orr1y+6vVdGHf+ANUKdJOopbahRpC5XiGs5QJEhbqSGYhz7oILLpij1TJ7DFRssTahMy+JPLviiivmpHwnpL6YPMLrV3cvOezQrh1tovr95PLgGc4VEnOmGlPFjh/th3NwX0SZkTTapMEI3x4v+dIfkD958R3iRx0cvi+DQTjuDQSGBwLV6Nu1k5bhAVG9pbj44ovzAF8lLQbqP/zhD3nCE2CNmJguvfTSvMPEJCTA2DLLLJN/M0H+4Ac/SF/5yldyjIxqDk844YR8uJ+dG8xzt99+e578VDSTnZdttXZxkEsuuSRPhJPTBlDhmzT7Q6iq+anjszxXG2odaQ4mDfkRCRaBsP3OJK9uCqaDSdu99957bw7Utu6666bTTz89ayu1G3Firr322rw9uhCZ8ixmlhtuuCHtscce6f7778/13jjJ035usMEGmZAwYYnw+61vfWsS0kLjIfJvEduWaU2RKGYxaTDvkPPPPz9df/316Wc/+1kt8VjEdCmHNr7++uuZvCD6CIxDGznvwjskEAgEAoEgLU1sAyb/EvjN4O+k4DPOOCOvjpES6nFOn1TitCccNonJ2onCzA+FtLDpGbgvuOCCfB3CYcWL/DijxurfwG8S4+xoNW2iteXUBGNlXSZY6Vqhu787kW+vVgmsBJ1z1s7kiNVQ5A1+6gw5EFqfJovvBZz5YtQpCO1NN92UfT1EmEVUbLdWfhO5NmK7dNGyyRvNm3q3S8chj/xpVl111UQDQ9wrWjINEAd52hFiq79otu7hv6P93HXXXbndIT3K6IXwaAdIlPaEtNDqySdxGvYOO+yQP9f1RzsVbFAe+b0g60i275HyT33qU7F1ui6wI51AoAMRCNLSxEqj5j/ppJPywItwmABNyDQqiMlyyy2XV9AmG6tN6nYqeu9VU4OTs5GTgw8+OB1//PE50NnXv/71rFI//PDD8yrbSnnDDTfMRMXkWmKgmHjEx6iajrbaaqsmlnpwSZuMRVeleWiVpgfRNJHbqmsHkIkSgTJpN+OcHWWmxaHREBafgyrCwsdDHsqRE1dccUUmHnxCkAqEpLQlqMsnwoNouB8pRa6Ql4suuigTXkT52GOPze0MuUHGaPpgrazu0xa1JWYaEaOZbqQtvVNOOSWfMA2PH/3oR1kTsuaaaw6u0ru5W5sV28VLGWm4xo8fn/HXR+w8KhrKbm6PrwKBQGCYIlA7aTFJhvwbAVoSqngh4JEGZ9lYMZs0rNap3K12rZ433XTTfNMRRxyRd53AEdHhO3HuueemL33pSzkN8UKk99Of/jSfi/ONb3wjq+kd8OcMH5ock6DJ1bsJq2oyQJx8XzW9+OxVrTuf3TfUanmaIloGk21f/DTqbGsmR4SB9kL5TYwm56HAgAaDxkRANiRBO7FN+LLLLst1g5zygWJS/MxnPpNNJggKU+Duu++eTjvttEyOXeN+5p211lor30tLsdpqq2VCcuihh2bCsv/++2dyw8Sz3377ZU2GqL9bbrll9iehxTn55JPTt7/97VwP2q926Pvddtstt8Xtttsu/fznP8+aHW25WYKceCH5yMtjjz2W3xF7BKavvjjNyl+kGwgEAs1FwCK8SO2kpaivywNG8jvVuxWqSdDqlfaAI6RVNZJBqLx/97vf5QmEBsTEZaVscrDaNwGZdPgiIBuIBDMBzQrVuVW3wVu6nmGCNcDTChTSggD4ngbhkEMOyWkjMyZm15QXkiB9/2skzt454IADPkBwmlGfhZwoA22CFb12VCVbzXiuNGENSyYg2iz1xUzHlFYlds16vnQ9h2ZDKH+mIARBu0BcEAd5pH1j3qGNYaqhEUF8aWYKwSvaOuVAWl2LeDHn0Iaoc0QIseEzQqNFY+N52oL0jjzyyLT33nvnNseE6OUe9YIsuK60idJ+tGuEYrCOub1hrD3QPnkhecrBl4dpS959r8whgUAgMLwQ2GKLLboKVCtpMahI3CAY8m8EzjzzzDyQIiTs9CYKzoWIAaGSRzKs8E02CIqJw4SAnDAJbbLJJnlSRWhMqCZZhMjESjNh14XJBxmS7qhRozJJcQ3ywUfAhGMi23PPPTMpMFEiC8xVVvdW7Fbc/nedvKrHZk/c0pdnkw/fBRM00wDiwpRRCE0d7clzTNzIASzhaOUuDyY8u1X8NtQiX+qRn4kt0wgLx2nmkC984Qu5zfiNJggZRVhc70wk12grvtOW1DOSrC0Vk5N6ZAbiJyVtGr/LL788p4doaCfEff7XFjbbbLNMoL7//e9ncqxv0+oRZk/5YD7SbplwqubMfFGT/8inFyKO2MOH4zKSRvOiHpG4kEAgEOh8BKoHG9dKWkBTBsDOh2nwJeCP4EBAux9MxFtvvXVaZ5110h//+Mc8QZuQTB5CFFP5Iwt2B5mwDMbnnXdenjCQEvf95je/yWmY3JEUK2zmJWn/53/+Z550DNwmMJOM3R/MG6KOIiFWzAgM4WsjTStUkx2tjYbBzMBp0y6WoRAaFZOlXVM0CfJOEDamizoFIUL0TMh2wMAPISyRFut8Vn/SQjBM/sjTOeeck7FHMGgN1BdNBoKCaCEIhJaBr4u2tc0222R/FVF7BbRT7+p3n332ycRC++A0q03ZSoxwfOc738naCpo3WiZk2X12qMHFhH/YYYflukF+XDNu3Lj8PETS82lvmDPlyTNaIdqLOvVSPv3JC27asD4VEggEAp2NgF2xSyyxRC5EraTFis+uD1szrWhHuiAtyIhJp9jkTA52XJgsaFHIeuutlwdXq8WihjeRmlyQE34MyIcVOedLJGPzzTfPK03OkCYOExq/BeQE6bAbhd+CiY8mR32YoImdSOqpEBP30LAQq1c+N+4pO5fyD03647lW6TRISFXJh3ybjOvUtGifJmMmIOY5JjhaBVoIGg6r82ZrlrqDEcFUP+pZ35FHhFV9O8uL6YjjNUzUKeHbpH44aSMM8i1IG4dbJibO3T/5yU+yFoY/lGcgzXyekDfP07b4Uh199NH5d4eSFQJHI8jsAhttCSkgfGwQI9oW5Lk46+YfW/SHQzFiRWumXMpEm6nMIYFAIND5CFjUNoW0GGStyJgnDB4jXcRZsdJDWkyYRZAKg/2pp56aNSsmI4LY0DpwrHS91bGKsrPDBCtmB3MTn4YyibjPCrNM7tJEgkpMGJoek7F8cLKUFxMdZ16rblKtKw6ViAMT1YEHHpjNJvmiJv0pRIJ2SfmZPbQj+eUn0SxBykzeTAu0BsginGib1M9QON+WsjHfKD/TDuLJwRYxLaQSuYCNOCtVnzHfISvy73v1RnPGpKNO/U5bQiODKCMzCGpVPM+ONDjQ/BXhMyJfSBKnXvfusssumRhoN7SD2idH3VaIssqzsjHzIb60TrAq/akV+YpnBgKBQP0IFA28lGvVtEjQZNOK1Wr9MA0+RViQoj3w2e4duzBMUHYWUbnTlPB5MejSnMCPnwntCYZpEqeFMTDT3lhBSsPEYYLl/2GSsgr2WZpMDiY5xMM10kBumB1oMExuhexYTZvAi9AOWbnSQvD1aLbIM20BjYJ8M1MgM3Br5moZZnwgvEzwTDR8a7wQB74RJsFmi7IiUXZ/IRDqg++JevL5mGOOySYt5ITGhe8RJ2kmtBKjh8mLpoWZT9spwg8G+UBq4KwdFExN+AITIrgIEnMccoPIlPgryLC4P0gU0yNCoH6QazvbkD15WX311btMe+XZzXjXpvUd5dZ+ac0QbRrMGHeagXikGQi0FwK1k5b2Kl575MakZNIQ5O24447LE7TDn+z84RfAj+SXv/xl3pVhIhALA2kwiSM5VpQmGhMHMxGCYTLDPn/xi19kh1UrY5OVqKYmJj4N1OWC17nOhGVisZqmUTD42+LqGqaEHXfc8QNgibJqIh9KQfKYveRNmZVjqMSzy5k4sEUOkQCTtjD9NDBVjVSd+VI3dpCpe9uUl1122VzX2guySuPEeVY74gyLlNKguYepxi4jWj3fc15GuoogF4WkFDy1KeSIpoQ5ym4hfiy0ekyHyBGHbVo9jr58jbQPO5XgIU/SZE7SdhDOKjEvz67rXb49h12bxgdxUmaEull1UlfeI51AIBCoF4EP/auMZDWka+ASPdMKsarOqSHp2pPgrMdnxATRbOFcaSVIU2J1y3xjkqiKiYLJyBZTq2WTgsmyaGuq15bP1R0ixdzBJ4UwA5jAaGuIaqZx8Sq/m5hNYEwhJoGenpVvqvkPUmSStKqvOnKamJiwaA+GOk/VItJkIBIIpFU9kxwNFS1Mnat6daNdmIxpDoqoG5qSqilQvZatyH7TRkpfY0KEF8frIsgsbLU9uCIiHLCRHm2GVqWQGvcgjK7j28Ls4n4ktxWxUJAlbZhmRVvRRmFR2nApY7wHAu2IgMUPLbrNFXzmQgaOgAX2vvvumxMITcvAcezznUhcEYfedScmQ2LliOD0RThs0g50Jyaq6mTXeI3fTXjtKMrPUbZKZFqRT5O/wYbZzuRN00D74XuTuom8EIbB5A8BYmJpFCTGqyowQSK8kNyqIFONUkis7+FqACVlF1Lj9Qhs8efhu1L8nhqva+b/yLQBHynTH5jKtOVWt4dmljnSDgQCgckjUNWt1E5amqkmnnyR4pfhhgBC1i7CJEID4mWnCt8XWghO58Ws0h1haJf8d0I+aLJs7UdWaH7gycenSro6oRyRx0AgEKgfgaaSFqvQOlXn9Rc/UgwEBo4Ap1bbs2m4+FkgL5ybfc/vhfajap4Z+JOG/50IIJMW8xvfGwQFrrYrtxNpHf41ESUMBNobAT59RWrVtFghiYhrZRoSCAxnBBBzO4u8xEvhh0TzwoRk8mVWKSa/4YzDQMrG1MaHC+njVM5XhbMxU1gseAaCaNwTCAxvBKqa7FpJC9iCsAzvxhOlmxQBzq/8g7xoDuyuEQ9HfBMTsi3Fdfi+TPrkzvmGepevCmLHFISgwKVd/ao6B9nIaSAw/BEQv8vuV1IrabElU9wGuxNauetj+FdhlLBdEbAi8DIxMx2ZqC+44IK8U43zKy3MSNqmaweQnVFetv1zqOXEHL4q7dqCI1+BQPshIJxHU0iL1RSVbzjjtl+lR46GFgGaFXFE+LnYdk7DYLXA34XPhsnbDqDhKOLOMP/YLk7zpJyiOnNkHkmEbTjWbZQpEGgFAlVNda2aFoWxLbFT7NLV+BStqIiR/kwr705pKwOtK+ZSW40FfxMYUMwR2hcvh4vSvrRiW/FAy9PTfciZ+C8loJ04SILXxSGqPaEWvwUCgUB/EKidtPTn4a28ljaIQ6BYEJ0qJnzES1mqW8I6pTx2jwiQN1IEgUFSvEzsnHfvvPPOfPigOC0cdwWB6yRRfyI12wYuGJ/AbxyTHY0Qi4JOqsnIayDQGQiMWNLCru5sHQNuJ4uoqUwOnUhaRHfl/zESg4aVuC9C5yMwdh2Z+OFhwufA286mFJFqkS5nABFEjMmrBKbr5D4VeQ8EAoH2RWDEkhaxNrw6We677758NoxTn8ux3Z1cnpGYd/FdSuRZmgoB1phYnB9Ea2GHTV8jJDcbP9uTESumLYSTVojJywIgJBAIBAKBZiFQ9ZOtnbQYzDpx1d8ssJuV7h133JEuueSSfJgdE5fdKk59DulcBGjMkAAdFDGw++jKK6/M2gvHCXDgRXKGUuTltddey47EHGvlkUaFJsjnkEAgEAgEmo1ANdhkraSFj4WIoGHLbl4VIoTOv7nqqqtyYC6V6ZC7888/P/uHCH0+3J1bm4due6Ss//Bx8aJ9QWDuuuuuHAOJVoP5qNmHBmpTQuozAcmDIHpCGThkkQN1SCAQCAQCQ4XArrvu2vWoWkcfjoYbbLBBV+LxoV4EbCVFVsaNG5fExCmTh0nOKbg0Lxwjx4wZ0/VbvTmI1IYaAdoMoe29aDpsnaaBQVY57grOVmdAx+JUS7tS4qo4MHIk+h0NdV3H8wKBQKB7BKoa5lpJi8dRJ4empXvgB/Mts9s111yTbr755hy4D8aIi+85bKpU2N90000Z/3XXXTfqYTCAt+G9tCxeArbRgkycODFNmDAha16QFz4mAyEwJRAefxrEmBmKqTF8VdqwEUSWAoERiMBFF12UNt1001zyWkmLSXPs2LFpk002GXLb+3CvR6tesT68ysTEKfLkk09Oe+21VzbLwQCRIeWa4Y7LSCyfYG1e/Fxs23dsgEjUHHZLxNneYqMwM9LclB1ASG/xm4kdQCOxVUWZA4H2RcBc1xTSoshs4eGIW3/l81NpjOFhcoG1c1y8QkYWAkw2tCJeYt4wHZXdR8Lk24YswFtVaFVch7AwKdp6vfbaa0dY/SpI8TkQCATaCoHqsUC1alqUMkxDQ1fXNFukvA/dk+NJ7YYATYmgbl5MR1433nhjNh3SoAiDjazwVeEnw8l3/vnnD41ou1Vk5CcQCAR6RKB20tLj0+LHQCAQaDoCtiN7CTzIsZb2hQbUWUhiE80wwwyxw6zptRAPCAQCgWYgEKSlGahGmoFAGyBQzIacdEMCgUAgEBgOCPzHcChElCEQCAQmj4AdZxzkQwKBQCAQ6EQE7JItUjtp4dwXjrgF3ngPBFqPAM97EZR765d+L7vPust1b/d3d098FwgEAoHAYBGoBtOslbTY4bL44otHYLPB1lDcHwjUiADPe464vQnCcvbZZ6err756kktPO+20fMDoJD/EF4FAIBAINBmBnXbaqesJtZIWsUHEEWnn02m7Sh4fAoFA4AMI2PmH3Bx22GH50Mbyo6CGgjs5gTokEAgEAoFWIlAraaE+dk5JqJFbWaXx7EBg4AhsttlmSTTlww8/PCci+u5JJ52U9thjj7xFeuApx52BQCAQCAwMgVNPPbXrxlpJC/XyBRdckANddT0hPgQCgUBHIbDnnnvmiMpnnXVWOuqoo3IAujXXXLOjyhCZDQQCgeGDwEsvvdRVmFpJi1RDy9KFbXwIBDoSAccB7L333ulXv/pVPt/om9/8ZgSN7MiajEwHAsMDgeqBrbWTFs64IYFAINDZCCy//PLZHLTsssvmYwI6uzSR+0AgEBguCNROWoYLMFGOQGAkI+BoCBqX6pHwIxmPKHsgEAi0BwJBWtqjHiIXgUBbIcDMK+bS3//+97bKV2QmEAgERjYCtZMW5qG+xIQY2bDXW/rqCZj1phypDQcEEBD9sj+m2ymmmCLNPffcqRrUaThgEWUIBIYKAeOyvhfj8+ARt4AqUuvZQwbFN998M40bNy4HmXPsvS2TInJ2d/ozFfSiiy6aT511sNtTTz01SWA6lS7+yxJLLJEr/8knn0wvvvjiJNfZuUSVveSSS+bB2SFxtl83Ptczp5tuurTwwgvn6J/3339/XlF6RlX++c9/Zlu+g+fee++9HLeiDP6N180333xplllmGdKyTjXVVLlDKN+9996bD8Gr5stnZZ122mnTIoss0ueyvv/++2nChAk57cZJDiZ1llX66kunVvfagMmyKurV765TR04q1sa6q9e+ltVEPO+88+Zdbn0pq+d5buMzC8bwORR65wAAIABJREFU9WztUvtsLENpN9qwNjqUZZ1zzjkzfupVVNzGOlWGar1Wy7rOOutkzO+8885cJdpTO5e11KsBTr8uuFfbk7Kqe9caH4wTk6tXY4Sxoq/16mTt559/fpL6H0gblndlUG/djU3GG31RWbVhz2is22aUVfBQi9KeyipO11JLLZXzbew3BzRirC05bdz436qy2pHyxBNPTFJfpb0MtqyvvvpqjlmmHmks6yyreWm22WbrtQ07JJWZt69lfeaZZ9Jzzz03CSbal3o1DqvLRx99NL3++uvd1qszz5wsT5Td/NldG8YPnDQPG9dNrg0rq3GnyAdniPLtAN9lTHC5v/71r7kzScaZAa+99lqqev+W5HUqL6Jzuq4xMJ0GLV0FIu+++2631+kEJvIiTrgFauMEIj+lA0nbIN3dwABIExHxbGmRxoHBdbPPPnv+rbeylvMT6iirPCmv/ChrY6OQoYGUFY4GGdj0VFb11lO9lrIaVCdXr9L3PNJTvU455ZT5Gn+Utbvn9qesBksCw57KalAg0u7umX7raxtW1t7asN+rWsqeylqtb5NvdwODtjnjjDPmtlHqtbFOlcF1pazKU/pNeUbJNxz6Wq/lnsnVq98ROO2MOIW6O4zlp+TDdcoqzdKH883/W4ZSr6Wsk2vDpazKUspa0invfvNsMtg2PJCylrFpcmU1MRBpa8PeG+tWvRZNWbVe842VP32t1/I87z3Va9EwuG5ybVh+qvlVr++880639dqqspaxSd/qbgyDebWsjW24jMvevYr0VNZPfvKT+bLe6hVpJaVe9Ycqnn7rT72WstZRrzlj/7uT2Pw6uXrtT1k32WSTkmz60L/KqNH1VXzoFAQeeOCB9Nvf/jYddNBBOZZGp+Q78jm0CAjBT7tzwAEHDO2D42mBwAhGgIbuxz/+cfra174WgRlrbAcftInUmHAkNTQIYNc0NyGBwOQQ0Eas3GJ9MjmE4vtAoH4EjMsxPtePa5CW+jGNFAOBQCAQCAQCgUCgCQgEaWkCqJFkIBAIBAKBQCAQCNSPQJCW+jGNFAOBQCAQCAQCgUCgCQgEaWkCqEOVZNlV0biTYqieH8/pDATKroLy3hm5jlwGAp2NQBmfy3tnl6Z9cl/rlmfFsj2w0TGUA6BtayZXvxUHpSoMrjGouk4l23ply17jQOs66ZRtcLaS2a7V3XW2WZd4Jq7rblug9Gy99JKO6xrTkk/X2XprS7atZLZxTe46W7lsta67rLbUVbcK+l8ebHkUT2I4l7W0FfXQ13q1HdEW4k6r17rLqh/BzfZebaSONlzy2N/+2tiGSzoDrVfpdScD6a/GLttbu+vXnhFl/T+k4Vsdh6Ne/z1HVMemMj57t/W3COyqY1O7tWHzbwkfUGe9mn+rW78LHt5hYqyGS3fzqzGrhIOolbR48IknnpgHRQ8vYtL4zGc+k2aeeeYcpOvPf/5zzlz53bsCydjmm2+eMycQ1sSJE/N31etM2jPMMEPabLPN8tfXX399euWVVyaJx2KgFnxp7bXXzuTnsssuy4SqkfUaqBwKN2rUqDz5X3LJJR+IC1Ge7bq11lorffrTn85xaK699tpJ8ubagZRV8K7HH398kvS6K+vLL7/cVVYNANm67rrrcjCfUtbLL788E6buyrrMMsuk5ZZbLneiiy++eLJlXXPNNdMCCyzQa1k32mijvN1aECnlqNY7PNSrjqxekT7XPPbYY5Nc11tZSz2oV8HBBD7TuPtSVnERLrrookGVVf60YQGR+lpW7VwQpkZMtBEkEyZEGxb8CU5V6U9Zl1566eSQw+7KKuAZrM4777y0xhprpAUXXDAHkLrmmmsmaXOer6zqVSwIdXX77bdPUgZ9HTEv9XrXXXdlXCZXVv0VGRg/fnwO1tZYVvkTgXfdddfttV4FLlthhRVyWbXh7kiG/rr66qsnwbWU/+qrr+61rOpqcmU1QSsr0tdTWcV2cl1vZZ1rrrnSeuutl8t6xRVXdBtnRxlKWfV1bbi3sgrQeNVVV/VaVvV62223dVuv1bLefffdeczurl5NbFtssUXO0w033JCDQ3ZXr6Ws2tWVV16ZF6TdjU3VsqrX7qRar8qqXhuf6T7tSRsWp8bYeuutt062rNqmhWYdZRXMccyYMXkeMIfJm3fBKYsogyBtK664Yo5PpF71p8a6dd1qq62WA6HaPq1eJ1fWDTfcMMda6mtZ77nnnhxYcXL1qg2roxtvvDH3n8bnwrda1p7qVVDNlVZaqdeyrrrqqjmIXHdlFfDuW9/6Voaw1jgtJigd2sTYGNStVFi814fAgw8+mOO0qEwDQ0gg0B0Cp59+el4AHHjggd39HN8FAoFAExAQXfbnP/952muvvXI03CY8YsQkefjhh3eRllo1LZiZ1V7I0CCAnYcEAoFAIBAItB8CZXwu7+2Xw87J0XbbbdeV2VodcVWO8xZoXEKGDoHoFEOHdSc/KdpJJ9de5D0QGLkIcAkoUitpQVbY59jiQtoHAfZHjsONop78FhIIBAKBQCAQCLQrAg4FLlIraZFoo4NVeVC8tw4BTnJ77rlnuu+++z6QiZNPPjk7Rn7gy/gnEAgEAoFAIBBoIwQ4qxep1adFoo0e0OVB8d46BOxMscOIJuz444/Pu3jkhqd52UbWutzFkwOBQCAQCAQCgckjUJ2nate0TP6x8UurEKD9siXW8ep/+MMfurJhu1vjVrauH+NDIBAIBAKBQCDQZggEaWmzCmlGdmhYZpxxxrTvvvsm8Q8mTJiQHxNasWagHWkGAoFAIBAINAuBIC3NQraN0rVrhNPtBhtskAOkiR0g0mFoWdqokiIrgUAgEAgEAr0iUDtpMTnG1specR/yC2hbRKT83Oc+l99FLhb5MrQtQ14V8cBAIBAIBAKBfiBQ5RS1kha+E0LJN4YG7kfe4tImIoBQOj9ln332yWYiIZqjrpoIeCQdCAQCgUAgUCsCtZIWq3Zn81jBh7QPAshK9aCqVVZZJW266abplltuiUCA7VNNkZNAIBAIBAKBbhDYeeedu76tdcszFc5TTz2VDz4L4tKFccs/ODTOgVoOpCyiETh80SF1IYFAIBAIBAKBQLsi4JDkIrVqWvhNODnWyj6k+QjQbDkxuLeAfqNHj0777bdfPhG65Gr66adPP/rRj/KJz+W7eA8EAoFAIBAIBNoNAXHGitRKWiTKRyKcOwu8zXlHVBzfTVOyyCKLpCeffDIJIOf7kEAgEAgEAoFAYDghcPvtt3cVp1bzUFeq8aEpCNimjKD85S9/yVuW55prrrT99tvnyLbjx49Pn/zkJ9Mcc8yR5ptvvvy5KZmIRAOBQCAQCAQCgSFEoBoRN0jLEAI/0Ee98MIL6YEHHsgRbaeaaqqErNCwlDgrs8wyS/r73/+eHn744fTss8/mdzbAxRdfPM0666wDfWzcN0wQKJrP8j5MihXFCAQCgRGIQJCWNq30t956K/31r39Njz76aCYkiMqiiy6aZp999m5zzMl2qaWWyq/nnnsuPf3008lBib7niEsDM80003R7b3w5fBDgT+ZE7ymmmCKbaTnHO8nbuzZFkBcxe5Be2rmQQCAQCAQ6BYHaSUs1CEyngNBO+UQ2nnnmmeyv8vGPfzwtscQSmXD43FdBbLzef//9THweeuihdP/99ycamXnmmSfNO++8fU0qruswBF555ZV03nnn5XovMXj4OnGSP/LII3NpCmGx7X255ZbrsBJGdgOBQGAkI1A7aQln0P43J+QCsUBWyEwzzZTWWGON/N7/1P7vDkRH3Bwvkxnz0T333JNfyAvNTX/I0P+lHJ/aFQEata233jqdffbZOfwAbUqJfKyd0bpMOeWUaeONN06jRo1q12JEvgKBQCAQ6EKgyitqJS223hoMywqv64nxYRIE+KAgEo888kjeCcQHhZ+KuClVp6NJbhzgF4jQaqutlt57771MjsTT8WzaF+ajT33qU10+MgN8RNzWJgjQsjmu4dxzz81kuMRM0vG1sy233DL7O7VJdiMbgUAgEAj0iEDVjP2hf4U9p0ew6v7xtddey6SBw6zdQHb6IA3TTTddr/FW6swLc8Ebb7yRfWYQmOLgizRVA/nU+cxIa2gREAX5ggsuSHfffXf2aUFQt9pqq7TgggsObUbiaYHACESAqf+II45IX/nKV9Jiiy02AhGor8gW+SU4aq2aFhPhfffdl1dxZWdLfdnu7JRsVabZMJFgjSYOr7IKHurS0YohJyuvvHJaccUVc97kceLEiTl/Cy+8cPi+DHWl1Pw850xts802ubOL60PDMuecc9b8lEguEAgEukOgOLzHrr3u0Onfd4WwuKtWTQv1s9ODP/vZz2a7ef+yNfyufvPNNzMJQASQOBOGXUBWvO0qJjdaILFg+D8ssMAC2SdmJO884mt0xRVXdGSbRoqZBPmzzDjjjLlO27Xt9ZQvCyJKYf46tIIhwxsBC7zrr7++o+tanzN28DPrxDZrPkcW9LlWKyHGjh2bF11afa2aFgly7BzJzJIaS0NlchGlli/JSiutlH1GOsHpFaHysmtJ/jkIG0BmnnnmvPOIA2+rG/BQD9dwYL5bd911h/rRtTwPcaFZs2uok63BdkUxqXbiBFBLRY6gRJ5//vk82TvctVNFn+PfaU6oOpJ2Unn4xSFfrR7zLfyL1E5aSsIj7Z1/iN05OpuJgTMkskJF34mCYPFv8WLSevDBB/O2aVunlY3T8LTTTtuJRet3ng0+SEv4+vQbulpvqDrj1ZpwJNZ2COhzzkcbDn2uGRsrhqrC7DRsB6lu7gnSMogaEcgLSRGt1sROq7Lkkktm59pW+aoMojiTvRXxQsCsFvi90CRdfvnl2fdF1N3ZZptt2O8YY54IaS0Cnawlai1ynfn06HOtr7d27HNBWgbQLorfB+9wHYvfh11AVuPDWRAxZfWiWUJg7rzzzmwOZDailbF1OiQQCAQCgUAgEGgGArWTluHKjmkZhNRHVIRJp31Yfvnls59HMyqm3dNE0JZddtn8ggm/FxoY6kQExu4jKt6QQCAQCAQCgUCgLgRqJy2tdtipCxjpIGDFV8U5QCZk/hwjQavSHxyRFK/XX389OyBzmpowYULeLYW8IDhBYPqDaFwbCAQCgUAgUBDgzFykVtLCfLDFFlt0fGh4OxRs+aVBQFoQFdFkbRmt7hcvIMb7vxHgOOfFz0W038cffzxdddVVmbQ47wiOneqYHHUcCAQCgUAg0BoEqvGlaiUtitMu3sYDgdbpyLQEotZyQOK7sfbaa9dCVEzeYrTYddOTeO4dd9yRyRISyHseEUAAitAAiZuywgorfCA4HaLA38YzGh2BkS9EzFZmu5xoi3hk29KMTDTuBIIFk8/SSy/dbw9+xE6aXpyVH3vssfwcz0L84Mp5N2RSBMTIuffee9Mmm2wy6Y8N36hPTuBOdPZSpy+88EISH6iEHdBWnP4966yz5rtpwzxDO6D90i6qvlhOgrbFsdE3icO5LdPaMOHPZFdESbcha/FvINARCDBp88UTNVrfWHPNNfO7TRXnn39+jlFlc0VVLGaNr9WJtPp79bP+aNzrbcszC4VAn2JjcT9ojOWlv1199dUjNgba9ttv3wVrraTFAHnjjTdm8DtFI2FS1SBM5PKvsTj5ti8NsgvFPny4/fbbu3bYHH/88Xnfe3VikcRmm22WRo8enf7rv/4rTxDvvvtu7lAmmMsuuyxPGBo/VZnffv/732fNxSmnnJK23XbbTDJ0tMMOOywHQzOhmGQQSWTs1FNPzWmfdtpp+fv11lsvd0zvJq7bbrstdzDp6zh2RDnDxu8DFcRI/r1MlgaJW2+9NU+qyFUhTwNNv3qfybYTYuFU89z4GWG++eabM2n5xS9+kYkmDJFZ7QVxoLXae++90/jx49Nxxx2XyaFYMoI6jhs3Lg+oBkEDq3r/8pe/nANEeRYCqb1IG2k555xzcj3vt99++f/rrrsut4Fvf/vbuZ25X5vT/uC73XbbZUJjAEWckSVtNkhoY03G/52AwCWXXJLmn3/+vFA1NtlWb9G4xx57ZC2xI1YaRdA7izzj669+9au8UKjOd/ooQn/QQQfljQo/+9nP8njbuJCUrj6tX1ls/ulPf8rjrvHfcRsilcsTsSAVM8UC1kLS+O+z8b3MI435HE7/l/FPmWolLRLmrMpBtVqJ7QaefGLATzzxRJ5INVQnHjfDfGE1rMFZwcLGZOLZnkdTgll7mXxM4quuumruED/4wQ/SH//4x5wn9y+zzDJprbXWylDqFBq4+witCELiNGdlu/baa3MDd+bFMccckzbccMNMmBA0UlbYzqUxITl6gSbHZ78xhSFtViB1xhjQwbyQIXmGh1OnfWciNvF5/kBEp7eTyYGdnShIIoKAVMBHWdQzXyrEUd3oU0gJYoG0GLh23333rElBRAy+N910UyawZYBELqRdBDEv7cB3G2ywQbr44ovTyy+/nEmKtrPbbrvly5lJnRZtBaoda28+l0NRkRYkX1vcdddd+62RK3mK90CgVQhoyzfccEMm38ZOY+FnPvOZ3Lf0L4sI/nn6k7FQ3zFWMnMbsyz0Nt988xzuQh8tCwtjt/stAB3X8qMf/SiP6/qw5xRBWPQtBIeGFEn60pe+lLUqFpv6JuLiHpF1Tz755KytlhfzrL46EkiLchsHSa2kRYJWhe0KonDmTB5U3SYGUV6ZfxpVcaVB1fF+yy23JGzehOQFn9VXXz1PMOuvv35+hAZpJUuNb6LSWK1gTRJrrLFG1pqYrPzvpSOYUMoEbwK75ppr8oSCFLnGyplvyQknnJCZvEZeJjL1g5i4TpRR5d9xxx1z8DjX6ITNFB2eg64XDYFBwcCBPCJLvu8PWVKXJtfqYNDM/DcjbaRLx6RKVi+nn3562mijjXLdGUSLaLslIiwCYsWHSNBkGfAQXAOdduDFfIQckzPPPDMTHurtn/70p5kkakdIDdJshemztqitqgdtVZtg3tTu5En7oZlEvmnotFntz+qwtLGS33gPBNoVAYREvKlXX301a9uZSi0c9UFjChKCkOubCIhxUV+zoDD2Iu3GrDKnGLN9r0+5V/8j+qsFsXQslF1jrPK7fmuxZrxzD+JiHqBNIczpFqS03frilVdemc3H/rd7c6SIuipSO2kpCbfLu4HdKtLgrXGWiZFfRX8mxoGWx0Be2LMD66jwEQl5KsJsoiFrrCYs+dI4Te4mcR3I+Q8777xznjg07gMOOCBPFj5j9SYik0jxZ2CCcVieNKRdFc+g4tRxTE7IHHG/SVAn1KGsKvyvwzVL+E6ss846OQ9WMFYdtA1sykiX98b8V/NiMEG8TKKNtufqde3+2aqNWW/ffffN9f3jH/84D34GVWShaC61lVJO5EE7Qvq0K3VPayUd5MEgiggVTYvBkfbMPdqaQZcGUPrEAAprmFJ9I8pMVe4v7UEf8lz1RPQr/xeSHaQlwxJ/OgABfYp2mrZDxG+aDC9tGfG3YKTJZE6n7aBN1L7NIRa8jvXgDqHP6UvMtcZqxN7iQb8wxnov2nHp6ofGbdf88Ic/7Do413hLY6qP7bPPPnkc9GzaIH3bwo52Rf4QGf1W0M+RIMpc5P8+lW+GyTvWTLWO2RqEbck1CZokNaKhEo0cSdCoTQK0KNj8RRddlJm7DlB22JgYXFtYuAkF6UJi+KogE/KuPEiKe6U/atSonCazgTKX1TEnXp2jUaQvD9KwcucAJg2dTh6F6teh5EcH1HGbLcpoMjZx0r7wMyp4GVgMJghUVQwEtALyq1FXG3b1usF+Lj4lg02np/uRBeWxKlP2o48+OrcPpNNgZYBEWJjU7NAr4j5txKDGxo1MHHjggbnNqOe77rorfeELX8iXczI0YKp3fYE5qSfMrOSQ5rPOOisTYKYmZkoDJ82K9D//+c/ntiLfcAoJBDoFAeOnMUd/oNnQhmkO9SELOeRe/zAWmj9K++Y3Z9wsq3990n3Ga/dZfJl/+KC4p5AXhAbxYZIlRxxxRO63PhunXWuRaxFGK4MYWehKXx5p1M8444ycnkXKcDjiYCBtZViRFoO+BsdfQkMzqPIdsYotK9WBgDSYezReky8iwbZp4qF5MdFo+CYRWo8yscgzUjJmzJg84bCZmpg0YCtqGiKEwwSFxGD5OlHpHIhG0U5g4jBpFNeYtIq2B1Y6AFUkZ2BaHY6Y8mSSGkrRwZmrvBApE7hy0r4gnLQ+ymxVYhKFj4HFfSZuk3TdYhAaigGCKlq5yw4rWozFFlss72xAWpw0TQPiO2KgU9faFf8kJj75pJ6GF3W2wRRWiKD2hvwaBA855JC0yy675PtdXzQk2p+2CXsDsAHUwC4N/3umwRfJ1I4M/BwHeffT4oQEAp2CgHZsoaYPmSeYXPQ/Y8jPf/7z9Jvf/CZrM4yP3AiM5X/4wx+yGRVh0U/1L2OSdwtGY7UFlu/0VVqTqpiLPIO4X38j3su9iIsFmr7F54+Wx/xB68lky3leno3TI1FqJy3dTZJDBazGZeXN7khD0A42vwsvvDBrWUysCApSYOCn8qP6N/hrgHZgFDFp6AQISnHINAH5nhoTmeCRrsM5BfXYY4/Nkwp2ruHzaFcPdhTpDKVjlPT9/9vf/jZ3Lv4SCJFVAfxgZsWBCMlbTyvxkl6z3hFNndSLv4W6RVx22GGHPIAgLLCUR5Ou8v/xj3+sPTvUx1Y2zRREQt3aMcCmbkBCNJAx/ib8opj8OOkVgqE9IA5IDG2I+60Iv/jFL2afFX0ASWYiQmyQHsQFuTjqqKOyWvzQQw/Ng2JZRWob2g7zIy0lfNWDfBSBNzJLAyRt+aEhCwkEOgkBpnF9Rp9ADJB3xJxG0q5G7dpOT32gEHJjuLHZ+G2XqYUFM7yxEkExhvpNn7GwtBDRp/QfYzMixNndd8Z2/b2I7wjTjzzQgEvL+GenqMX4d7/73ayhscHCs5l5R5rUTlpUaHWAG0pArTJtyTR5WR1rlCZ+DW4oVsrdlRVjFnODH4vJAHsmdgIhCiaoX/7yl3ny8T3sXGcSk/+CJ7MRs4AGbwJVTmpGEwj/BxMYD3QTFQKkA+g40teh/F5Ex0RUvvrVr+Zn8ymxAvje976XiZU8uL56T7l3KN8NAgYTOCgLEoa0wJCZTb6Z1uQTZsrgmrrF4IC4NFOkb4DSXv785z/nRykrQSRpRhDeqg3boGrAtePBKpDwP7HKo5nZa6+9skZNvUoLceH7Q8WMmDI9fec738nYlT5bBk7tDp76ErV3IbDe1YWBFEGU3uGHH54He0S3lSQ3AxB/AoE+IoCAGEeML/vvv3/WcP/ud7/LZlNJGEstAOzktLAkNIq0jvqHsclYZGeQ8dnLWERL7Rr+KaU/6FfSsMBgikKEaIY9v/Q5/dn3NDaENodmlB/M1772taz1ufTSS/OzpcW8O1KkOv7WSlqAzgbXKjGYUrl5McFgppg0VTnSwqyAxGC8QyVlJ47GWBU+LSYEqncaAytkk4hGroIwfOpLW9poGBANE4RJy6TDtCNNnUbn07hNWNSYyl/k+9//fv4oeFLpHL6wkjDZ6VxwMuGU711XvTb/MER/lMkgYkDQaU3iViMm4jIAlKwoK6yY35AWZSiq13JNHe/qCTloppQVU6N5ywBmoKK+Vr8IFNMeoWWhbUNy7ERDSmx5llftnS+Qz+7TN3xHo6LODa76a294uQ5pob10H3LkfwOudqN9a4NWfrYkUomHBAKdgIC2z+yiH2nnNiJYYO600045+8YWYwqfuaoYo/QF84px2/jA38ScQ/QVJIOZ32LAfKPfiZdUFWYgYpwv15iv5EUaFhTIiQUGlwD9mImIKVh/0+9Gipgni9RKWkqi7fBugqNh8TLQ0lyY9E3UnAtNAibEoRIkwCShgdK68MfA4K1my64RLJ6WxGqWFoR6UaexouX4KECdrcwqkFaFueDggw/O5TvxxBPzzpMqYVE2k4tJhnnFSoCYvHilI0k6LBOC3zwbNjqkjjmUxEUd6bAmQh3cgGKrbk91ZEDg+2Nw4ISMuDRDmpVud3k1YBVBxjjk8i9R77RK6l0sH87R6glxo3XTThAWpIZmBS4Iq7ZG42LF6LunnnoqExiksBDdRhKvvAZLOxh8pumxOjR421GhfTJ7IiwIprakXfdUV6VM8R4ItAsCSIDFkLHnyCOPzAQDidGmLR6Mr8zoFom0J3b2mVcsBPQFY5QxkyaEiZ72mjAzucZCQd/il2KcrppgXWf8MsYanzna6lcWIIg/TSYzOG0yk/C3vvWtrFnRl/nM6ONM+/zSGhdz7YJvnfkQa6xIraTFgEsrwKGpVFB5UCvfqfKs1jmmmhQN3EXNpnHQVGgwzRSNl73zJz/5Sc4HvxNaH6JBn3TSSZmU8FGhyrfbSJ5giqT4jp8DUkF+/etf5wkKAUHGNF64NwotjkmFpkaUR4Lxc9rUaUrHsVqwUve/TsDLvdhxG9Os6395srqRf6Yg9cBOrFPq8H0RpIvZRMc3CA0Hgb/VFKc/9WBw0p9oMQ2y7NvaElJLvVzarkEToTHwekeSDXZs4wgqksKPSprupXm0mmwkLQhrISD6DuLrOuYrv8GZqVJb5KiLGFGvl3wMhzqIMgx/BIw9yAYNiYWj/sCtQLgJxEPf0caNi8xGyIyFgfGKBtyC05il37nXZ+O1saj4o9GS0Ma4Vh+uLkogrI8iTTSqfvMyJzH9eCE1xnhzAJcCny1Y/Ca9xr47XGtNfRTN0of+VeNy2oBGK4AhGkzbWYBAvachmiA1OA2rsOW6806NbyKwIjWJdMeOaTt8D0eNGYHoi2jok2u8iBpyYHJvlzph2rIrCIG0ktcBDQwm1oGKjm91ZGVSt0hXnstWxbrTr6Zn8DJwIgvqCy6Non0Usuk3baUvoh3Auz84e5YhorRXnxvbJU3XULQtK17125tJqy9YxDXK2yPCAAAgAElEQVTtjYDx0pgmCGazRNvWJ8pkWJ5Dg2m8bBxT9R2/+b4QdP1BOqV/lDR85zpjs/7SmFa5rrxL2zWlf1Wvl1Zf+3hJr653TsE0qv0ZM+p6djUdDsy0TKRWTYsEVXbjoFZ9eLt81lCpvb3skkBeBArSGE0UfD6qDWew+aZW701gRxo7QG/39ZRPhKyvWovenjOY33U8Gi5mOqt2+PPjQFjqEJM8j/tOF1omr55koANYGWh7Srvxt8Zndde3h4KwNOYr/g8EBouAtt1IWKQ5OSuBcblxbNYfGr+TRuk35b23vHaXRrmnr2mU64fje3FtULbaSUsnAmbi9GKisNLlW8G2yJEReaFK726w7sSyDmWerTJoQJBCL34XtFlUrtScdUt07roRjfQCgUAgEGg9AtWFeZCWSn2UnUecdPkM2C7MARZpMdGacE28IT0jQOVKqyLQH38IuNI0eS/apJ5TiF8DgUAgEAgEAoFJEQjSMikmeWLl4+JlAuZ4xc+ABsbEi9SUGBrd3D5iv+J8hujRWDFJMXOwSQ/ELDFiQYyCBwKBQCAQCEwWgdpJC8dPzkTDRUy4xffFNlHbg22vpXGxd97EzEN8pIqdJExqiJ26t7vF2TTN3nk0UvGOcgcCgUAgMJIRqJW08PswWQ1X3wJl87JbAoGhVRD3xURtW1tvDpTDqaEx/cDADiAmHwTOtr9wyhxOtRxlCQQCgUCg9QiweBSplbRwlhHAariLidkk7WWvP7ORcyTuvffePHEzH/XkDd6p+PDgplERCMkWPTt2mH8iCmqn1mjkOxAIBAKB9kegujO0VtKi6Ca2keRsacL2EvfFZE4DgcTwh0Fq7JLpZAKDnAin76RlWhVExU4rmqWRYhZj7uzkOmz/IalvObQoGk6m576VemRepZ5H0jzSrrVc3bXTyjxWz1yrlbSIxTF27NgcoXSk7bKx39+ZMIiKSV48EmHYBeVhNmFWKlFGW1n5fX22rcr8d5iAEDK7pwT2QsKGq/mvJ2zshhIiP6Q1CJjEOHq3yyDaGhRGzlPVt+Cf3cVRGTkotLak6sCminYI92HBzA2D1EpaJMjfQ2FHqpjQRdX1oqUopzXbfSQ0v9D9tBTtKrRF8ioUNe2CWDXCXI9kTYP6okETayakNQiI+aMddhLxbw1Sw+OpAnyWGE/Do0SdVwp9zkK8HXZ//ulPf8rn8UGxdtIyElfhk2uOJnpHkXs5QAsh4Pvi8EKdkpml1eGR5d3RAoiKl/rDaOWZiSsk5cMDy2ndgUcgEAg0HwGbGkbSxobmI9rZT6jyitpJS2dD07zcl7gvNFEOJ+Qjwtzge1F3ddChtOHyPbJV2RlACJUAerYqO9cldgA1rx1EyoFAIDAyEJjcGUYjo/T1lrJqogrSUi+2vaaGECApXqLFIi4O5CtHndt51EztC62KHUBshNR/nIid3htq916rLi4IBAKBQKBPCPBrdFK78XX99dcfkX6AfQJqABcFaRkAaHXdgiiMHj06+77wl+D4evnll+cdOswzou7WoX2hVaHdsauJnbhE9WWeGsm+KnXVY6QTCAQCgUBBwFhrQ4rFoRffxo022ijG2gLQIN9rJy1UYiPZEXcg9YE4cDL0wtDt2LnttttyIy9B62aaaaZ+J+38JBoVJiDRajnVMgE147DCfmcubggEAoFAYJghYOw+77zz8gKUAytt9vjx4/MGlS222GKyJ0gPMxiaWpxaSQu705JLLlmLdqCppW7jxBEKr6WXXjqTF9oRDrJMRkxKdh9V7XuNRSlbBW3RtVWZOWqZZZbJ265ju2gjWvF/IBAIBAL1IGCcPuecc/LWfGevGadLbCGLUFFdt9pqq7yLtJ4njpxU3n///a7CfuhfoRbpAqNdP9grr0OIvktj4rRp8WCK74sqRFCoIpEVHYaDL4ITWpV2rdXIVyAQCAwXBCwuzz///PT666/n8Ve5ytSKvPhs7Gb2txORiT6k7wgIHcISQWolLSqGc6l4JLGq73uF9PVKbFOArYkTJ+Z3O31sT2ZS4g8jNgw/Fb4wIy24X18xjOsCgUAgEKgbAXGtaFKKjyCCctRRR+XDdgXlJOZHAVjt1LSwDBkYArWah9jvLrzwwrTtttu2RUCagUHSvnchItVDG7HPK664IpuAdthhhxETVr99ayhyFggEAiMRAQt1ryLmQsI8H1qVgsrA32myaKnIfww8mbizlQgUXxV+LmK+BHNvZW3EswOBQCAQ+D8E7Ngkhbz83y/xaSAIXHLJJV231U5aenIS7XpqfKgNAZ3CtuhiP60t4UgoEAgEAoFAIBBoAwSq7g61k5Y2KF9kIRAIBAKBQCAQCASGIQJBWoZhpVaLJG6OOC0CHDWK8P0i5IYEAoFAIBAIBAKdgECQlk6opUHkEVk57rjj0rHHHvuBVDg2HXTQQfncoQ/8EP8EAoFAIBAIBAJtikDtpMW23PCvaJ/anmqqqdKWW26Zzj333HT99dfnjBUis9JKK+VYLu2T28hJIBAIBAKBQCDwQQSqnKJW0iI2y+qrrx47WT6Id8v/W3HFFdNnP/vZdMIJJyRe7aecckoSV2DnnXeOeDotr53IQCAQCAQCgUBPCFR3YdUap8XOIZFaQ9oPgV122SUfmPjtb387H564//77RwC6PlaTgFAiXXoPaQ0CVlof+9jH8mGisUOxNXUQTw0EWoXATjvt1PXoWkmLgeWvf/1rDiH/4Q9/uOsh8aH1CBjwv/jFL6Ydd9wx7bvvvmmFFVZofaY6JAeC+IkTMMccc3RIjodfNq20RIPefffdM3EZfiWMEgUCgcDkEBDlvUitpMXAIkKriVHws5D2QmDWWWfN5zc47Tmk7wi8++67+QDLMWPG9P2muLJ2BM4444xUPTit9gdEgoFAINCWCNx0001p1VVXzXmr1adFiuV0y7Ys+QjPFFLJ7yjMHP1rCMwRVZtq/+6Oq+tEIExDdaIZaQUCnYEA0lKkdtJSEo739kPAxOtAS4d5hQQCgUAgEAgEAp2AwCc+8YmubAZp6YJi+H/45Cc/mb70pS+lRRdddPgXNkoYCAQCgUAgMOwQqNWnZdihM8wKxM9o6623HmaliuIEAoFAIBAIjBQEQtMyUmo6yhkIBAKBQCAQCHQ4ArWTFsHLqtHrOhyfyH4g0LEIiHz89ttvfyD/zqJq/O4DF8Q/gUAgEAi0GQLVjRC1mofsTNlwww1zEKg2K3NkJxDoEwImdGY0bblZ8vjjjyfHK8w222z5EXZzcY5+7bXX0m233ZY23njjSfrQHXfcka9dfvnluw65tEAgFgkf+chH8kveJ0yYkDiu2clnm/B//ud/pgceeCAtu+yyaezYsXn3mAjJVRGLRoylNdZYI/8Oh+riozxj6qmnTn/5y1/SPffckzbZZJOMk+jKxblbPmBX/rfbZ9ppp00Rt6mKdnwOBAKB/iDw8Y9/vOvyWkmLAWr22WfvSjw+BAKdhoCtdRyWS0yAZuR/4sSJ6fTTT08///nPk6BJJ510UiYwSyyxRBo3blzaaqutJnksomPiFxTw8MMPT7fffntacMEFE80JcvLqq6/mk7xPO+20/N1ZZ52V1l9//RyQ7dZbb0233HJLWmyxxdITTzyRHOvQKAK33XfffWnttdfO6d95551plllm6drqrW8/88wz6eCDD84xa+6///70wgsvpFVWWSUdeOCBaeaZZ85E64033khexgH3TDHFFPl3MYJCAoFAIBAYCAK77rpr1221kharMacHL7zwwnmw6npKfAgEOgQBGoZrrrkmzTjjjE07kmKDDTZINCennnpq+trXvpbGjx+fScuf//zn9PTTT6df//rXmaBMP/30mURcffXV6YYbbsgkQHC19dZbLx/FsM0222QCIc+HHHJImmuuubKWAzmhNXH0AOIgzc022yxrUGhJ/va3v6Unn3wyP2OmmWbKfVWZkZBzzjknp/2Zz3wma108j+aEBuU3v/lNeuWVVzI5OeCAA3KUYGkvtNBC6etf/3p+HgImH46NMB7QKHlGSCAQCAQCA0WguuW5VtLC7nTzzTen+eabL0jLQGsn7mspAiZnk7pTsUV2nn/++ZuSn/322y8ThyuvvDITC8957rnn8mf9CFEw6SMdTC3FV8xn2g2aDQSDOUnEXqafPffcM+f1uOOOy+YgBANJee+999LLL7+cjyGQpuMIkBYkadttt01zzjln1zNobhz5cNVVV6WHH344a208G/l45JFHEqJEayN/zFjIF1Ly4osvpmOPPTZrY2hVTjzxxIzjl7/85TTvvPM2BcNINBAIBEYGAhdffHE2RyttraRFgmxPBtqQoUMA3kwEIYNHoPiG0FLw/9htt90m8S8ZzFNoM2g1TPRMMUwyO+ywQ+Krcvfdd2eSQSuiHyEYTFVf+MIXch6QCSSDeYm5SKDAZ599Nvuv0HbwW+E/gmxJ95hjjsn/MwcttdRS6eijj87X7rPPPpmw0KJsv/32iZ+KlYz7+brce++9mRghQtK5/vrrs8mKucg9fHF+8IMfZG0KwqP9yQcTlVPeCXIljzQ+o0aNGgxkcW8gEAiMcAQsoPjQkdpJywjHtiXFt5I2sfAfCBkcAvw2EECv559/PmszmDvqIoUm/aeeeipZOfBR4TTr/9///vfZJ4WW5xvf+EYmLbQZn/vc55Izj2hfdNyzzz478TfhcMuEI41pppkm8cU5/vjjM/lZbrnlsgYEEaK9oSW57rrrstkGsfAMWhjECWEpO4qkK18IzGWXXZZJDOdg95x88smZnMjrL37xi2yOkidOuMiVtictJKtoieQr2uTg2mPc3ZkIGC+KxrQzS9BeubZgKxKzXEGiQ99L57jgggs6tATtlW2aFh3ERIwQ0CAghUsvvXQtGWUq4Q/yne98J2tB+H7QvpxwwgnZ9EJDwceFWUUe5OWXv/xlJqUyMHr06OwgSxMjb0xEtBscXxGZlVZaKTvbLr744tmMw6mXpsPuIN/95Cc/yWSEtqaYbf7rv/4rcdalMUFClLtof+66667sHCySMkJCkBJkhFYHNoWkeEdUYMik5H/brkMCgYEgoE0+9thjtWo6B5KPgdxjR6B+IP+c4jtVLGjmnnvutOaaa7ZNEYK0tE1VDCwjGhP1f5jkBoZf412cXmktaBsMPLBlFjE51yUmcpM6EuBIBT4gnG75iHBkRyjsEkJIaEnkBeEweKy77rrZ9MKXBXFBHoq2w++IhJ1FNDg0KjQlHHv5mR166KHZaZYDMGKy77775iLttNNO2eTj2nXWWScPtNKhYaGpoZWhgeKcjCAZjOUNkStmLPmXVw7D8u83hFo6IYHAQBCw043Zk6azE0X4j9LXOzH/8swXzsJlWJMWq8OQoUPAhOYVUg8CsKTWpfGwC2fTTTfNWop33nmnngewyU4xRSYNNBHSPeqoozJxYV5BNLyscGx/3nLLLbPWBdGgdeF3gkjY7qyvyS/SM8MMM+QBkl+Mrc7e999//7wD6sgjj8zOtgqwxRZbZN+WZZZZJi2wwAK5TMgOrQuHXoRDmsyNyNCnP/3pvP2bfwptkN+Yn/iqrLbaatkMhczQ8CB2yAszFd8Y15Zn1AZeJDRiEEB6+UxFGI3WVblFiYVUO0ntmpZY8bdT9UZe+otAISyLLLJINtcYOBGYOsWuHeQDsbATxzOYX4hwAciBrdCeS+NCEBSrNiSHXwmthr6GKPC94SvjM2JjdxFnXA61dkGJBVPiHHACtlPJ7iHaGmSjpG/rtHvKytbW6uL85hrPpn1iljKYITTiwnz/+99P559/fiYy7kHG7CaidUFexJ8JCQQGgkCYFweCWn33tAv+NNNFaiUtVM6bb755HtDKA+I9EOgkBGg4TNp26TTDtCGIm11J2223XfZd4Yey8sorZwLh2cT/ArTRoCAIdvAgGxtttFE2V1WDw9kJhPCUrdnSsA3Z9mRqXaYtZIRjrWf7XlA7pEmgONFyaVk44CJGfFI4/x500EF52/OFF16Y8+Q3ZIvmCSGZbrrpskOwlTCfHOTLb9JB/Ghh3ENbhIgxKYUEAoFAIDAQBCy8itRKWiRq0AsJBDoVATFMbA8WB6UZQjtC+8CXxYnbHKiRi+ouG9oSk7wtzfxMmGzmmWeevIuoMU98TBr7HH8WPiV77LFH1rIw89gZxOwkmm4xKVlk0PJwFqQd4RSs/LQ4tDVrrbVWJhxICAJy44035h1HtC2IlfsRHGYtUXFpaZiuOPHKk91Nnum6kEAgEAgEBorAzjvv3HXrh/5lNKpJDG5UzmzeBsOQQKDTEDAhN06ySAWHNJFsQ1qHgHOUOArTHoUMfwQ4ezOPIuwhrUGAdpaWl7m5XaTWU+HwH2rndrGDtQvIkY/OQaCRsHROziOngUAgEAgMTwSc1VakVtIiUartcMYt8MZ7IBAIBAKBwHBDgPO7kACEE7wzuIpPGqfRhx566AOLd4EhBXisCi0GnzEWipCeEeA3V6R2n5aScLwHAoFAIBAIBALtjgDTr/O6WAoaF9y+8xJ6oLoLjoO8oHH8xvhvnXLKKfkzAiItuw85oBfhCI/M8BMrUiJuc7DnU0aQnzPPPDPvHJQXvm386+TR/TTBnsGa4TiN3XfffUQ4uVcd+YO0lBYU74FAIBAIBAIjDgExh/hiFmdPJKUIp3VHZ3B7KKTld7/7XY7dJH7JD3/4wxz00a68X/3qV1n7IqYRB3oO8F/84hdzmABO6iJTc6rn7ymuEud7Tu/VCdnzBIKkgfG9c8guv/zyvCMX4REOQdA6Fg0hBexCtJNvJEmQlpFU21HWQCAQCAQCgQ8ggBz8//buA8qyotobeLkMgMCQg+QgIDmPoGQkSJAsKgNiRDBgeDzDM7wnJhRUFMRMEhQlShyGHIacJYhIRiRnEPGt961f+dXlcOnuud19+sZda52+t889p8K/wv7X3ruqaDCYa2g3quYa5IBzvvv2KSq7PtN+cBC2N5IVc4iDE9URHhsqet5xHEiLVYBMSfZlsn0BU4dDUC1YESctSlmtaGkvImJbAWnT8Nx00005bvmTV2RIfv0+iD54tZMWFRwhEAgEAoFAIBDoBQQQDVqP5q0D5N1v9m1CQhxq6iyvj3/849k8Y/sA+xRVg+eYffbbb7/8jt+YkewaTRPD78VZYkgKkxCNjLPIHKVRNR2VtEvcCIpLPu3t5NP7Va1QebbfP2snLc5TUXERAoFAIBAIBAKBbkfARBthcZp6ORS0mmeHlDIPMfHYy8geRtOmTcvv7LrrrlnbQQPC54SWxtJ8zrmW59OynH766ZlwSENadrp2jAazlCMKxOGd6dOnZ/LCNGRTRsREnEiQd2w46X9xkrG0PINCWoqTs3qplbRQVVFnDaLKqtrI43t/IWBgMChF6CwCxpVBGaQ7i/Rgpc7MY1NFO0TzN6kKSD4mNBpMMhxmna0laIv8U0499dRMUJhumHZoQawcQjgEph1aFWTFd7ts+w054kwrHoegOv+LA66DSW3WKB+eY45yzhiNTFEG6AOO0XB/UMalqlNzraSlVGaurfgTCPQJAgaG66+/Ph8o2KtFUgaDXa/uoWQGa0AflEG6V9tZL+abP8rXv/71fNQFslDO+1IWGg8kwhldCISAgCAdjs94+9vfnlf8OHuL06zzuMrp57QivjMjnXfeeVnjggQ5n0vQH7VrzyEgX/rSlzKJ2WCDDfJYIy9WB/GVEaR/++23N9J54oknBmYTV0eElFAraVEB1GZsc+xvEQKBfkDAgGIA6VWBrw4syXSWERV4LwYD/IorrjhwKyV6sa56Kc9OM7d/iv7t+AsyzJEXJVx++eWZoFx55ZX5NzvDIixOMkciONdypuWMe9xxx2VNCi0IJ9x99tknm4GQnq233jqf8yVePjEC8lPV6jRbKJy6zoH38MMPb6w6ot35wQ9+kOUrrc/+++/f0OqUPPfjJ3MbXIVaSYuBhZ1OZUQIBPoFAbMj+y70cqCWtv19WbbZy2WJvAcCdSHA9EMYuh599NHcz8mxEky+i3avkArP+c6BVrBnC58UhMZ9GpCf/OQn2QelxMNkJPBNOfHEExsmISuISvx+R2KYkRxOKl5mISQHQWEecvr73nvvnVcoSUv+ByEceeSRaa+99spFrZW0iFEFFNvbIIAZZQwEegGBooruhbxGHgOBdiHgwNEVVlgh+6Y4Kd3p5lb6lHDQQQflTdys7imBU64VRWWZModYcs//Tju3Wog/ikNR9TvanCOOOCIfLuqZQw45JDvdMiUhOFYTeU4cyAnNj9848iIx3qXd8Yw9YOwbI49+89x2221Xsta3nzAuoXbSUiKOz0AgEAgEAoFAoJsRQASYdfhL7bvvvq8gLPLNbFScaks5EAX7rJTAJ4bPhU9OtUgQ0xHNJmLhFPWPfexj+WR07xxwwAHZFGVzOiRGHpilpEUTuuGGGzaWUjNLOV3dM4KVRkwlTNWUA815K3nqt8+i5VKuIC39VrtRnkAgEAgEAoGWECD47YTLBFw105SXbQ7XbIJhSuIfVoKlzJZBl1DV1CAie+655yviZqrlwOuaUZg8eXJyRXgZgSAtL2MR3wKBQCAQCAQGDIGhNpUrECAz4wlI0VBkaDxxDvq7tXvxWL5VVFmDDm6UPxAIBAKBQCAQCATqQ6BW0oJVOnmyan+qL6sRUyAQCAQCgUAgEAgMGgIT5ojL9mfXwAiBQCAQCAQCgUAgEAjUgYCjFEqoVdMiUl7QEQKBQCAQCAQCgUAgEKgDgfXWW68RTa2kxaZyJ510Ul6S1UghvgQCgUAgEAgEAoFAIDBGBB555JHGm7WSFrE+88wz4YjbgDe+BAKBQCAQCAQCgcB4EDj22GMbr9dOWsIJt4FtfAkEAoFAIBAYBwKxXHgc4NXwqn1muiFY5FNC7NNSkIjPQCAQCAQCga5BwG6ytq332YuBoLVjrd1re3UbEGYZO/B2OgRp6XQNRPqBQCAQCAQCIyLgkNLbb789Vf0ZRnyhC398+OGH89EAyEsvEhcHPC633HJdhWxoWrqqOiIzgUAgEAgEAhBwArKrV4ODFZ1ptPDCC7e0ZX+vlrPd+a6dtFDl9SKjbDfwkV4gEAgEAoFA/yFA/jnt+ayzzsoLU2hbnnrqqbT55psPzAGHE1mrtZIWdifHcQ/KyZMTWTERdyAQCAQCgUBvIWDbj/POOy9ffFmcXeTe+eefn5577rm0zTbb5Hu9VarO57bqV1MrabEjbisnV3YegshBIBAIBAKBQCBQHwIE69SpU9OFF16YIzV5Lw6kNl295JJLMnHZfvvt05xzzllfwgMQ01ZbbdUoZe1Lnp999tkwDzXgjS+BQCAQCAQC/Y4Abcr06dPTrbfemuaff/600EILpbnmmitrWeaYY4604IILZt+WBx54IJOaXl0R1al6XHHFFRtJ16ppUXGnnHJK2nHHHUMF1oA4vgQCgUAgEAj0MwL2J1t//fXTBhtskFgchHvuuSd9//vfT1OmTEkrrLBCvsffhZyM/WdG1xr+8pe/pGWWWSa/VLumRYVECAQCgUAgEAgEBgkBRIRJCGlxFd9OhKbc892GbcVsNEj4jKeslCEl1KppEWlURoE2PgOBQCAQ6B4EzPIff/zxdPfdd2ctABPG0ksvneaee+4UO5nXX0/l8OBYTTt+bGeaaaZGJLWTlkbM8SUQCAQCgUCg4wi88MILmajcf//96YknnkgLLLBAWmONNVLxr5htttmyD8aSSy6ZZp999o7nNzIQCIyEQJCWkdCJ3wKBQCAQ6FEEHn300fSnP/0p+Zx55pmzIyi/C9+FJZZYIr300kvpz3/+c94Eze6zVrVwenzTm97Uo6WObPc7AkFa+r2Go3yBQCAwMAjYC+TBBx9Mt912W3r++eezBuWtb31rJizFQbQKBj+MlVZaKV9/+9vfMnm59NJLsz/GsssumxZZZJE0adKk6ivxPRDoKAK1kxZr1cOG19E6jcQDgUBgwBBg+rnvvvvS3//+9wbhWGyxxUa1ipOPi8sYjsBYvktTw5wkLuajCIFAJxCocopaSQsmv84662Tv6E4ULNIMBAKBQGBQEHCYHdMOx1qrNu0Lsu666+Y9QcaDAfPRUkstlS+Ou8jLDTfckG688casebHr+Rvf+MbxJBHvBgKjQsDuwiXUSlqsHFp55ZVL3PEZCAQCgUAgUCMCBu/HHnsskxXaEBuXIRiLL7544lBbd7CyyC7ntC/2HXH98Y9/zBuoOf13vvnmi0lq3aBHfK9CYNddd23cq5W0UOE89NBDuUEPZT9tpBpfAoFAoK0ImFDEsta2Ql5rYg7cY/5xavCTTz6ZzTWbbrpp1q6U/UBqTbApMtoXJMUGX9K32ddFF12UNS5MR6555pmn6a34NxCoBwEnZZdQK2mxLv3MM89M73nPe0ZlSy2Zic9AIBAYPwJ//etfs1DhZFkmD0wJ/B0c3Cboq0wKnDD5MUToTgT4qnCqRRTsVWHFzzve8Y6OaTe0J9oXzr1rr712suLozjvvzBdND+fd8H3pzrbUy7m66qqrcntThlpJS47wdbVH2ctYR94DgbYjwN8AcbnpppvyduEEjXtWlRT/B6Rl8uTJjYGg7ZmMBIdF4JlnnslmGIRAQCr5kVRnm8O+3MYftKu3vOUt+Xr44Ydznvm9XH311dlk9eY3vzmvPIoNR9tYKX2alMkWkiwEw+jTSo5iDS4C9tj44Ac/mM8Bu+aaa7JZiOAop84y42644YZpyy23DJNRlzQTWi/mn7vuuitrxPiqrL766nnlTi84vTok0MX35ZFHHsnaoTPOOCP7vNAOLbroollT1Gm44XvttdemLbbY4hU+QPqJpd3lfJtO5zPSfyUCs8wyS+NGkJYGFPElEOgfBHTynXbaKW8kdtlll2VTkNLxa9lkk02yiaF/Stu7JXn22Wfz6hxOtZxsnQaMTMiaRpYAACAASURBVFoJ1IuB7wuC4lK2W265Ja86ovVTNhojG9h1KiAsn/3sZ9OnPvWp9LnPfa6RjZNPPjnRDAVpaUDStV+CtHRt1UTGAoHxIcCnZfvtt89bs19wwQVZ0/LOd74zm4XGF3O8PR4E7EJrwYI9UGyrz0eEmYUviMP0+iXwcWGCXGuttbLPCyfiqVOnpllnnTXvusvsVT1Tph3lZtKiiTz++OOzX856662Xk6WFDEf1dtTA+NPoK9LC0ZDDWthQx98wxhoD7M2o+mkXzRdffDFxiKzuFTBWfNr9noGYL4SZL+2LWa6VH+Uwt3bnZ6zpMWnJv3IQPL0YbKevHTFRcIy2VJmdHmnp5zFLfdFiuIzPlk3TeDDJWKpt5ZEN7NoRtHvkEEn8+c9/ns9gYn7rZ/zbgWs706idtOiM1d3r2lUYaVLxGZTL2RrtSjvSeRkBam4D0dZbb/3yzR7/xiHy7LPPzifi9mJRCI2yQshKlF4jLDDXvzkX89Uh5Hsp3HHHHZmoPP3009kh2l5WTlceREFpfHatuuqqefm29siXB3FAXiyrnkiNh7YP949+9KPpy1/+cjrssMOymahXiXAv9YPx5LU6ZtVKWlS85XjtVvkBw6BGHWm5dYTOIUDA26WznwIizimSL0iEziFw3HHHZQ1F53LQWsrGIiuAykGETD60j05Wjr1MXsaw7O9iDxrLpmmgbr755sZqKeRmIsiE/mxTvP/4j//Il12EY6L7cr1047fqXkS1khYM1iy7k8EhYb3gbd9JjCYybaaUVmeQNGPaC0JgySTVuQGfGYApxuV/KymolgXLdqdNm5b22GOPiSzGK+JWHn4IETqLQJkldzYXw6f+wgsv5DN7CF+mICYPPh0E5EQIRX2j1b42fK47/0tZKWXPICuPaNT08bLbLx+U2WefvdaMkhOcgvl4ff/7389mR4dDRuhOBKrjfa2kRSdiL2errTKj7oQhctVpBKiBqWhdCMpvf/vbrKWjMrZ6wmBvCSVVsjbl/sUXX5wuueSSTHYM2MjMAw88kE499dSsVrZ0lPmA+jfIa6dreDDSL4IW8daO+Uy87W1vG1f7Ew8fPYL0rLPOynHSTCBuCDRz5UYbbZSXGReUvWMfnnnnnbelFTrMMnyERhP4pCBkZRIxmndn9CzHcWZMF20IWWL1Ee2LscAYUMycM4pruN/JKBgWc8OHP/zhvLrJ0QQbbLDBcK/F/Q4jUCWttZIWDcHWzjpakJYO13IPJL/tttvmzc8MTB/4wAfyKgMk5atf/WqaMmVK1sAYoA1mBpvzzjsvnX766ZnI/OpXv8pkxXPesTJhm222yYORlQE77rhjtpH3AAyRxTYhgNBqT3VoPcTDoVTb9Z1QXWWVVfKOtXUUBwH5xS9+kZy5UpasWzaMiNt11mZb73rXu16RlPH3xBNPzP3gueeeSz/96U9zf6iaWPQVTqgf+tCHEnObdyz9FR/thnHbZKAIdfmgCX3ve9+b+6A86If6aNHyOAvJaih91GV1EA1qNd1XZLSFf5jUVlxxxXzRwOrfV155ZY5f+ZGmsbghyFNVNmkLH//4x/OGePIeoTsRsOrM3jpCraRFhBpSaczdWfzIVTcgYJC79NJLM7lg8vnmN7+Z/QA4K1oKShCY/RhksexPf/rTaffdd88D9mmnnZa+8pWvpB/+8IeNQdYsaeedd85Fu/766/OMtxvKGXnoHgS0LYIZWWaCHEvQbmkzEBZjHeFpdRb/izoDYcqHiqmJ1pFWBHnffPPNs+aBgKWJcI/G0vPy5jlESvloJpETfUkgrPmOIEHuI0S0nL///e/Txhtv3CAqyBIBQbPhXRoe5MVE4Zxzzklw5A+CBL773e/O6SBLcPAcLQnChLzUEUyCXfyEjBXKXU6cptViPmrVedceOJY5V1c30uQaU6r36sh3xFEfAup7wkhLfdkcW0zdxpZtaX3CCSekT3ziE6/YhpvK106RZj3NQedk8hjqt/Ism6wBiB14PMEA8z//8z+5QVTVowYHMxvai+YBwWAlbSsgxjqbsvHUhRdemJ0VpbHCCivkTbaYfrbbbrs8+N56661ZwBAOBmeDoJmmAdnMlqDwv1klf4ISDJxBnAsa8VkQ0Favu+66LJxtvKdNtRL0EQ7m+iSnUe2O4ONcO9b2P6N0pWfsoPFw7griQnAjJMi+/m/lC/LkN74ZlhHrM/Z+cTKzfut//VWfMTYiXEVDoQ8dfPDBeZKgbMyqTFzKhICIV9ld+hTygiQgRvxBaD2lz2RkP6D3v//9OS2ERv7qIi0FK5MXlw3gmKiYjYwXFmDAhgZmRiZhz7qaw3jNTs3xxf/1IlDVjtauaak3q6OPTYf8zW9+kzvVmmuumSOgzjRjwbJ/97vfpY985COZVRcVKlOCYGa/77775k8zh6Ii5VD3pS99KXfi0eRI/AYFgwZi8N///d95EGFz5ptB0PquAxpgOJ5Jk4lNXg444ID8rsGiOWCeZjNHHHFE80+j+p8TGs2GZZkGJzNHZIJHvUFpnXXWyYOgSA1C8khFbNa111575YFb/kZLEhAe2pWf/exnOV5CQJnMgj/5yU+mxx9/PH33u9/Ng6fZZSGjVUdfWJX7oyp0PDyQCGijiAoyTnBttdVWw5IO7UobJBhpMAh9ghwZGEro1Q2oNGg6EBcTBAcUMrkgF9OnT0/77bdfWm211dK3v/3tvEyY+UY/OeSQQ7LZCMkwxhi7jD+nnHJK7tuWFCNe+rzx4zOf+UwW+N/73vdyeY0DVjgZF5QZSbA9/ze+8Y1MjNwTL18QeaGd4HtTJha0ORO9QZ56RLj49NDE0rwwIck74sWsJM+jHZPqrsOqGaruuAc5vr4jLRrKueeem0lAIS3MBTq6nRn/8Ic/pPe97325sxGA/B84zQmICtKiU1Kt7rnnnvk+2y+7LwHb6uzMbOeggw7Kald7S9CsfOtb38oqWsvCdXZ5JXhvuOGGdOyxx+aZisHm8ssvzx70nO2obn/wgx9krUY1bfuhGIzGGhAUWCinAc0A9OMf/zgTB/lx7L1ZizSU5dBDD82DHqwMpAYI5MqzNCUGzNHunyH+MhAjQVZaWLKuvOroC1/4Qh6UTzrppGx3plUysyuqeKrrQizHikO811sIEJpjDd6lRXDp4/5ngqkKN1pOfUv79p2jKkJNCDZrHMeaj1beY/KgUZAXWg1aWUTGyhpjRCFStByEtDLpFz6L1sSkiGbF8y4kTBxIkDiRNuSET4dJ1ZFHHpnLiKDQYDCl6YP6aNFgMA2VPmdsKNiVyUO7JxJm4Pa9MTbQEimvSRcSBb92bVo3VJ3Cu+Az1O9xb2wI1E5aSuMdW3bqeYtGoMr2NWyd1aCDLOjYggZVyIP/fRc870C5j33sY/l/5gozGQeA+T6joDMT8jQ8OhStiTg5tJkVFLIijwYTgp+/BnUz1a978lbO7mBHNojRcpQgbjOmsQbEwyxNuuy5sEFUEDx5FQxAZl1IIFMVnxHLlOVPPSM+VMXKR3MyWtIi/4QHcrj33nsn5AQRMfgYeAzG4lQv5UwQavNy2icyJd+wisFhrC2hd97T5rTb0bazUkJCXN/U/8SlX/lOm0jbSdgjA9o3U4M2XfpCiaNdn8g5jSbtDtLEnEUIGgeMI3Aw6dIHERBjiMkHE5H9YUwkjBc0ucpMiBsDjTH6NDLGcVhA3o455pjEoXafffbJfiPMTfAykZO+NBA3RK6MrWUcbRcmI6Wj/yMoLvjAz1jLtEZbJq/tnuRIU/uKsWmkmhv9b31JWkYPw6vf0NFLMFAwlxCYrQamKCYpHYcdmMmKxkW8JW6zF6pqGguzJAOLGRWhTavifwMnf5jmYHAyA9I5fY42SIcmilc+ezCNC7JH5SzfBnXpm3Ea0AxytFWIjRmY/BnsCBA2bBtnjTYYUAgIg4w0DIbU0XBBhuAAOzNDeTGoUkUX0oKwGJgtOa0ODNXvo81TNz9PSLmQOJ+wG8lvACmEEWFVDWbn6m+kd6vPd8t3/YZ5d6xEQrtQ5iJsCWXCHzEwWdCXOPsxxXQ6ICG0BmUSoS6Vf7fddsv5P/PMM7OJVt/XN/QdBMXFydaEh58YjWUxc5lA8T2Bn77rfnF61yaYjhAZ2maaZZMUGhhj19e//vUMifEMoRO8Y2LTbf0NFiY5LkcFwFF7V7Z2bu4HX9pyY2mE8SFgrCuhVtJiMOCToBN1OhisS/BdwylqzXK/fLpfBrJyr/lTx2y1c0qPKYojmxmSWQrhTxCXIC4VYSAyyPDnMJAgSAYVvxtgvc9uWx2oERYDkIt2wsqa0QaOZzQZBjkDIUJirxOzkRJ0dLO9XXbZJZOqI488Mg9Y8qWM6nmzzTZ7Rd7Ku618XnHFFXlghQNCaDUDwkIgExwIHc2WmSMCQ2AhKcXHx3PyaJDi7MyuDU/Pw3IsgfaGkBfvWAPhV/ImHvWn/WljZquImXSo2s2Um9uV52BsgDVTE7RRmjEDsRUbhJn6clot4ljaNixKgJff1F81qEfxMA8ISB+hqD4JcumWwd2gjzQSds2YaNNWotDWCUilOi3x5ptD/OHkTVNorCjazSEee9UtbQ6B12bHEviYHX300RlzeMGYFgFpoZmgZWF+YTI2WUAIxqrVGUv+qu8gBjS7MLcdgPqm9aABMbGQN+Zc9wRjjOs73/lOLpdy6As0J9oQEgNzQpSvDH8y7dTFPEQDo12IX/untYGL8jMJG5e0adooY5Kg7aq/MsFxTx1pv50U1MiUsVb7lBf5Nd61uy61J24BEcaPAFlaQq2kxeDb7oZRClL91JkIhBKK/ddArDMVAkBAGrzcN+BWg85XDbz2WzENlXcIKnjQJhhADA7U0GYq0pQPAkYHIzR0LtoK5IXgUAYDDQ1MlWWKl4MqQYF0cNYlrGlLRhvEW0w0NB00HurP4CQgMDQdNEHwNLDDyeAvfz4NWuIYbZC2gWX99dfPg6olzAZpQgVBYaMmnMRvgCXorISwM6LnzJDVq4EaZuqrOB0iWlXMRpM3M+5Cxlp5T57kR5siJAhCpEndwVG9E0DqnPBQbwgZx0crWQgf75XgGTM073Li9ru2wuHa81Z4GYzhQTuGbCIg2oWgDZk9M+MRdAiS9qUuCzliejOTl09tGglGfqULb7Nz2NNolf0xdthhh0witY+ysRgBqP3Klzzyv/jlL3+ZV454Rrngoo60G2ZI+VQ/tHnqWb151yeir48MF+Sfxq86gA337FD3S5/UNpABArpoVZBc4wAsafP0d33VPWkiMc1jwlBp1HUPZrSa+pZ+Ju8c1BEWeCmDOmX68Kxg3PBbEdrIiT7Cl85YJ/BV4T8naAfGDb/pd0ik8mr/PmkoOB77zWIFz0vXZEmAhzFMvZh0aEd+Z0IqZDs/2KY/yLX2qr0rk6XMylcl8m3KSk6m9Ml2ptmvaVmZVkKtpMXAbGamYzXPykqC7fjkf+EET+YPDcdgydvezEFn+tGPfpT9KOzAamDVuQ24BLGg4xEKhIOg0xo8mHwIE4NCKw5eOrM4PU8QyBcCU3xTEAGDAU2LAYffjIEAgXEZPKQLUz42AuFlJmSGKB6DihkX9a3nDWQEhJnTjIIBzkXAwkoabPvelXfLFg3q1MNmdFTShKR0/C6vPgm70QbpcrrVVgT1QnAQEAQpoVeEo98Nol/84hezpsLAS6jyOaK5IMg5N5fBm+AjrMcS1BcfHum1YvIyIBL0sLGiQRuRL32BJkT7s8oKVghNIZfu01LRHGhvJcABCUBqCpnhCI7AqCPtTtzq2HdtV9txT5nVh76HXPhfedRPIS1w96w8y49naVHMpOHKv8i7zAPwVD7PyJeZunvqhWAiJBAbjtPi1GaVk4ZH3PqKGa7Zvxm6+8goDFyF7MqzMusPI5EWGJU+WvAazad35RMG2ou+0xyUVRt0yQ9i50KMlYXJpTiCN79b5/+wgbV6RwgIYe3LmMQ5H2aWPFsBJJ+0aQiysYaWBI7KYOw68MADGxM1dQYDwVhkIqJtaAMIG6KrbfnfuKCutQnjo4kNh3vtyTghj/IkPmMsAq/OjRtwbEeQR+kiK9qo/HCu1n8j9A8C2nsJtZIWg4FGTwPQrkZbClI+dRpbuGvMPg38iIFOKFi6TPjZAZLgIOwNtgbnIug1fB0fmRAMGLzsDexYvHfM0ggoHWWoAGSDCaKCYMgHVb480V4wZxjgdXDpe9ZqHtgZGOWFEPeMNAgJ7xAsBrJCfJh2CDi2Z2YihMb/BByb9EizDIO4NJRF+K//+q+s+ZBPg5v6NMsTzIJ/8pOfZLJA8CAWcFJOg5YBrOQpvzCDP9pH8wGEhLhrqGDGXsxCBI6rBDOqauB/NNYAa22oOE+ri2qHaY7XDNxFa2AGapdShJmDsbqVb4LFdwTNElNBncPfe76XAHN1LU33YYuUqCP3ERx59Jtn/V7yhyi4p825kHNaMuXR/jzn0zN8N0q9S1t9W71VyDhiqo6kU/KnLNqjwK9JXsRDUPpfW0KU5Mlv0vO7eKQrTp/K41PwjEsaI7XV/PA4/yi3fCHnzW1vqKgRO6SMUEe6kALkVDuHr/FAmSci0CTS4NG2aDPSoVmjJTH5QlLkT52oY6SKeYewNtbpr0iJPKpTYxicYQ8DY5+6KsRUfzLGGV+0A4TdWCR+2j7lh5nnpGOFo3eNZZ5BbLQncdO2+ZyooD3TIMFD/zFx4a+CCE9UfUxUWSLe1hBA1JnFhaElbmvxDPmUBqxzdCoYDAlu20yz1QpV1s0cYYBFagzyOrOgozKPCNSw9iEoszrxKZcgLlvHmzV63gAyVDBAmwVTwxu0dTCzFp2KetxAqNPzCbByRvoGKsJOWgZYg6TOD0+zH7MJs6ZqefyGrDCvEJY0Shx+zcIMXMVpbqg8EqJmkWXFkjSVx6xKPvgmmAHLt+Xb8o3MMesQTLRR3jE4IjBmd/5X3l4N8o4UIGvKSkDNSJiqI22FQBDggzgxZTHdGVTVsws+6ozwp7lgJikC3Lvum8kSKgJhTjVKgNHclPf9Vr6X/uazfPe7NqYdEk6lHak35Svxe07ezVbVNWGAaCDRhJi8EFi0edoEMixdgwjHTVoHZYVbM07SQuTkyTvKIj/adylzyXO72gz/DNqCKk4wGCnIG8d1l3FDe4eV/oAUEOqF7I0Uz2h+M9HRn4xRJRhPEK7qPeMZjZH6NZkwvpR6QLgRZvVdDdqFe/aNKs/63YTK2KG9aIdlzPObcaGo6O1zhaR4Tp36v1p/lkwXcltNd7zftUX9RXvUfuFu3NRHR1Of481HvN9+BIypJbyyNZe7ffJZFe7VIunYzYy8DKie0wGrnbD6rucM0ph982BQfc53GgszAYM3zYlOZrbsPdoa+TPYlYHDVtquoQLHTTbnoTqn9/m2FBJhhkTbMqNgRiZ/tAACTYuBSgNhzjJzIYgNDNIgsFwjBe8TgAZGgbBSXoKQAEfMxFWEGAFCe8WBs2DuNzM6AsLMr9yHo9meuNnXC/4GbBtNGShp0NSR4DmDukHe8taCnfsEAvyLd3/5jcaBYJUmoki7Rc1uVttq8C4TC7JLPY9QMmeVehYPoV1MSfJfgjLRVjqioAh25ZFnF2xcAjzK5X9tS3359CwNiN+r7/nf+9T7fDfkkV/EBRdckDF0xgfhqP4RboICNrDVVtUv8qSOi/lMejRtcCtBGtIqbcv/foclYVcNfqsOStXf6vwuXZiX9jSWuOFFs+fi88HvhcnUeFK0bqX9jSX+8g6sqniW+1XCUu5JT9uqti+/DUccSvmbn1e2VkLzcyW+8m7pl+X/8X6avJlcmUjAmZaLKav02fHGH+93PwLVttrXpGUiq2KowaM5PQN8MWmU3wyc1UG7WhnlmaE+W3E+NOsroZmUlfvVT51+qBmiGWUJrcRTnvVpAENOzNjFT/AafJETQhLZgB2BZlCl/iZA3af1IsBc/FQIXapveXCPcEc2zLLM+sugTl1MqyRt9w2a0ibAzfT9j/wY3N0nSA16ZmgEjrxUBU0ZhOUPoRKK82G1rOW7dz1b3nNfnAKNhd+qxKS85x5iJk8lKBvNR8Gh3EeC+FQgT35DgBFhAqQ8K31Ei5YN2UBilV188uG7vPgfSaEt0D7hR1NmJk0LCR8k0KweiYGRVSiIs/yqW/5IJZ/qQT6qbVmeYCBNwXdCRz4E97WNQszEK76JDOqpWs/jTatoX2CtzRdnVKTPpc/Wmd5489tL7yPBSCFMtWvtlGZbO40w2AgMHGkxKJslUdkbJA02BpiJCAZ3nayVgcsgz/xjoBtuVm/mKzT7cLinkxM2VeIyVJkIHqShKmCGem6s9wgmqm0zWsJYuXwSlrQ0NFTV+wQezRBnzXJf2u4jd5b5Nt8XpxVF7gv+Vx7/77///vleeafc5/MjNN//2te+1sij35lhEChEiaClVaORKcI2R9L0R/0iWDQW8gLjUufSN+i6XwS01+FB+8OxshCccp8QRLiKwEf2tAm+We6LC5lgtiM4xesejYp2zW/LCiJ+B2aonKlpoPyG6DD/0egxKyBDiKG0ilYFUaMdonkTZyEnnC3VC38KbY15BJ7iEDxbgvwwHRXzq3Ypv7DQRmhWEGbxyb84RjJllni78VPeXcy9CDhTMGdufZlmicAtOHRj/rslT9oZrYoxGY7F9GgM1U4iBAIQqJ20VAfgdkNMUBgA7bOApRtEzcCrzp2//vWv88oIA7jn+YjwoGezNRs3CLsEgzjHypFm2dUyGox1NvEanC01RCYIgCI8DdSEG42A52kOCBCdlTaCmcfyUoGAMnNWJkLFQOgykxaKYCgaA8ur+fIQVlVzS8GBkIKNcrFfE9DMQzRC4jLLN8CW05JzIqP8Ix5lF2dzIKhdzWG4++phqHiGuy/eoZ4f6X7zYAhnbdgAimQxa1n+ipQMFThAwpSZQDmUnYBmDuITg5QwnxBa7pW2pU7Vt3qoamGkj5zyISl9ST1ZwlxWragzxAi58pv6F4f0+Uchv2aoyLj8cfBGoN1DwJBB5WO6Qsq0NyTHMzQehIS2qSzi1J7l2z359l16pSxMbMx++loJSI2zq2iH9DUr4Di2yzctGgIEM75j8iNuTq76gTZY4i7x9cJnqXv1r+8ijOqfKQ2pYdYYSrPZC2WbyDwaj4pTrbYGP22pqpGeyPQj7t5CoHbSQmh0asDR4Km62dwNjJy2eLKb1fFVMKgYQCzRtCyVIOI7QfNAIJgJyrsyEL78QgiEVkmLJdRmsVYceI9AQFB0SP9zxOQnQngRDvJFKCAtRx11VDaVeIaDLK98gzj/BpoL6ncaFnlVFiQIOSE8OMJxTiOsCDTx017AQyD8CA6BgLJ6ivMtrZO0CQlBXglHvi6E51gD7Ho1FMJCFQ0r9VPVIDSXC05MNbQP6ki9qQeaEISCluPzn/98HohtcgWbav8Qd6kncVfTKqQFiRSPNqPOkQvaEG1A/hAvxJtARBJohbR/JjAzfUQDgdIuEFf5RNJpWGhwpOMdq8P0A+8hNWXGq58UQuPd5iB+Zj6aoFI27yAg/qflsckWrZm+h8BJgwZJH/AcQaU8HNwt/S9tsjmtXvmfpk4/dimjC97KiLyol0HWviB1zJfGY4RV/Rvf9KVqf+iV+o58TiwC5HoJY5dMJYbKpwHUQI8cdCoUAc3mbpZpNomYGCAIBILZMmFCyeoiW9AbiKm6EQoDMOZPO2Mmq0ytBu/reHwFkAeDOIJB2JixFwFIGFCFm/UiIYgC4UeDYkWJlRkcIQkg+TFLMxP2jEFQ3EiI9BAss1ZEjRAw6HMARsCaA+0TzQ3TCg0QIWeZYiE00jP77WXS0Vzm0f6vcxCo6q4Vfx4rNFwlIBWIsrqmYVNffELsr8O5luBW7wJSajZeyIl73tP+DOQEHI0F8u2+Wbv2ZQUMjZrVIvqbFSLqX50juDQsljuLowhG2h7ERBuRHqGh/SA74iYstAXtrWhjmIcIEMRYevqTtiXQyolf8AzCw0/Gs/4Xv/YGRwSGlkU7NgFAXPQ57ZlGUFv0O60mP5qS5xx5H/xBUFzw0vfVOSwRR+RMPQxK0P6QeiQOobUCTdsbigwPCiZRzhkjUHXhqJW0SNpA28lgIDQI8pGg9TAAm/HSflD3IwmEc+kk8kvoG9CpJBEby3uRiuZZ8YzKxY+D0DKTYqphyjFjZdtG5AgbgeAyYBEQBm1Cg+Aj2NwjnJixCAjmIySGqt123jo5cwQyxISgLIIyIyy0O/ZyIFQICwKEEIALISdtu7ISDtKqzux9H2TCAkcrQGg1aMbGEuCHSNBgFeGLSCDJzI+lf2iHVoMhpwR9CeqJOYrmTd1pP4i2ukMwSr6QamRTPDaCo3nR3hAe7Yxfi/otmg9tTN4KQfJdWsWcVpawlnzQGCEe3hOHTzue8okR9KWiDfGdZk8blt9CWmgJCSRtrQQTBcRZPjznU9zFwbKUrzzfT5/qSv91mXioV2Y15kCkhk9MJyd8E4W1OkbUkFiTAmYffWyQyNpEYTso8Zr8lFAradE4qYItMy2Dc0moXZ9lMDag+k4gICCICEFgAC5CwqDpGQM3U4n/DfQGlDKYjybf4jIwmUXomAiH7dEJGNiUYAZPXW+AJ4yYd5hrCB1CjLqcADCYIz/ICaZZllcSKIjQr371q3y4mbzatZbmxOxdGQkGs3Q+BPaVQdIsXUbM5E/9GESYwJgNlF26RVCVvA7ap2W8RdCPpexI41BBu6BtK4Evi3ZA+9Ac1C1hr17UrTbRHJhjqoHQp10soZCL8v+MPpv9B4bKFx+cEmh8StCuhgraaXPQ7pgCBj0gnC7aF/2OBoYZ2T19H/5IZa8G46iJFLJivDH+ICkcx4dbaNCrZY18TzwCJtSF0NfaKwhtgtDA3SnSghyY4ZrtMvlQm5v18hUxOJSCV2FGHhCLsnmSzaNoKkYT3NaO6wAAIABJREFUpFvsswYcQkD6VPuIA/KBRND82AzOzJvfA2HGhOV/Zgmra2hVEB6dWz44V+r0ysBkxbyjHOKkTYE5IUfDY/dMZibvyxOtjZkc1bsgPkJR/vgOEG60PswHZul8YwY5jIewjAY3mA8X1O1QAn+45+N+7yKg/yMptC/6n4mJiZ/+SftC0OuvvRKYwhEwY5KxCUE1iUXAhxp7e6Vckc/OIkDhUHaor5W0KBay0q6BfzgYCWaqVwIbQ5Mfzqc+ERTkqoSSV2YdTogEPW2DwaQaqkyver98Fw+ywimSyYbmgiqcA6MVRdTnguc4JdLmmGWZkSAbVO/yhXDIQ1Gdeo7pCuFxecbAJj9mZWbiSBrTgZkam7HTkRGjQw89NJeJxuaQQw5Jv/jFL/LzBhR5MFi6Z5mw8sPry1/+cilSfAYCgUCbECgmMhozmmB90aWvM5kxW1b3T2pTtlpOxmRHXk3QjH3yaiPITk1eW854PNgTCJhUl1A7aSkRd+oTKdBpaDj4tBDqBD0ig7CYCRR/Fv8Dozj/mdEgDAQ+AuI3MwXLNfmL2CIfURgqSNezBhzkwQGDfFz4pbDt2zL7C1/4Qp5R8Zrn56Bj8z/Zdddds2mI1oPzI82K+JAUGhJqYmVANPguWCbq90KwmHwQEWSL1oaWyWChrGY3tC9MRAgUUsWHxyCJ4FD5e5ZmhmmJs6hD/HpZNT1U/cS9QKBXEND3TGRc+qi+bVJDs0obi8A0m/M6UTbjDa20pfTGIuOXsYiGKEIgUCcC5FUJfUVaEAZ+AjYSI4j9T9jTSvD50LkMBEwpAhU94c+vxFWCWQMVrcGD2tZA4RMR4YuAFDUHaYnf6h+DDFWWdzyLEPBhoflAODhK0gR5nkaFUy2ShGAgPmWVh1UnnDeLQyfiRRtkJYdgoJBHjpgIF9OTdD3vXRqerbfeOhOVn/3sZ5ms8dngH2Olh7OFLNUVEChnzSBX7NBFM5R/jD+BQCDQEQQQAZcJjEkHbQZHbeOEPmsMa6c2g2bYZNAYZ5ykkTZ2Vhc3dASoSHRgEHjN/5HqNQUNmubAvhKtLBetKdkcDQEubV7GRchX41dMV5VwEOq0LrQx1aAzUnOywxowBO/SciAXQ2khpE+7YwY0nDbGwIOQIBeW/ckLEiIf3hfETQPkvrSr1VPyXp7NL/z/JafiRmrkj4e+vCBBZmVDBTO4Urbq77QziFyzeaz6zEjf+fHwHWKu6pdglqvuq460/VK2XiqHfZCYHAZ9gzZjiEmPPmy8gIfJ2EQ6uBpfaJCNjcan4jBsLIswNALGQZuX0pwzxUcYOwIWozjIWKhd00Lj0I2BIHZVA1IyVDB7aXaU9O5wZEQcCMVwBKGkgUwVQlV9diRHu+Y8l7RKnOWzGjcTkEFspDAUYfF8MZ2N9G78FggEAp1DADmx2MEkkZa2bGbI94Vw1LeHmliNNsfiR9YRJKsRi2+N/YDaqd0Zbb7j+f5GoHbSgggUjUB/QxelCwQCgUCgcwiw8zNdu6w8srSY34vxt5iOhpuYjZRrWmYmIISIhsVKNkvcaVWGmkSNFFf8FgjUgQD/qRJqJS06kQ2zIgQCgUAgEAi0DwFmYZctE5AXfi9WHzFX8+FDbGY0mURSmJXtr0KTYrM75KcOrU37kIiU+hEBDt4l1EpaSqSd+jQLCLVlp9D/d7r9OsBVvdc7i/Dgpj4joTu4yLxccmOgjTVdNCYcd8uxAe4xH1VXHtGk+B1hgS//GEctjGQKfzm1+BYItAcBvmwl1Epa2EAtp+Ww2OzcWhKcyE9OpDpp8RuZyLQi7qERYF/vVr+moXM847ucoS1T51gXoXMIMIFEaB0BvnJ2K+aYb+WR5ck2rkRIEBibvyErNDRWFSIsMXa2jm882T4EEPDi+1kraVEEA0t1xUu7imWWYCmvPVH6dbbfLizHk44B0iGB/RQs5zQbtWlfhM4gYMUcYTuRK2Q6U7KJT5VjftG+0KyY2JVjS+wRZaVihECgmxGwZcmErR7qJGGwFX+EQKBuBOyJMdT5P3WnE/EFAhONAE0Kp1ozV3tHhTl9ohGP+OtAoKoIefUuaXWkEHEEAoFAIBAIdC0CTPn2caoKg67NbGRs4BGorloL0jLwzSEACAQCgUAgEAgEegOBIC29UU+Ry0AgEAgEAoFAYOARqJ202OI5VI4D364CgEAgEAgEAoFAoHYEaiUt7E62p++kM27tCEWEgUAgEAgMCAImna6hgq0M+MJECATajUB1R9xaSYtlxxtttFF4pLe7RiO9QCAQCARqQMB+Lt/5znfyjrrV6Jw/dMABB+S9Xar343sg0A4EqiuDayUtMu+k4TAPtaMaI41AIBAIBOpFYL755ssRfvOb38znDvnHLPewww7Lm9BVd9OtN+WILRAYHoHVV1+98WOtpIXq8KSTTsrEpZFCfAkEAoFAIBDoCQTsZP7Zz3422czv8MMPz3k+9thjs1nowx/+cGjRe6IW+y+Td999d6NQtZIWsQ5nD22kGF8CgUAgEAgEuhaB2WabLROXSy65JP32t79NZ5xxRvrQhz6U93Xp2kxHxvoagRNOOKFRvtpJSxxq1sA2vgQCgUAg0JMIrL322mnjjTdOzEQ77rhjqp6y25MFikz3NALVnZtrJy09jUxkPhAIBAKBQCAjsO6666aFF144rbfeeoFIINA1CARp6ZqqiIwEAoFAINA9CNjCwllFsbCie+okcpJSkJZoBYFAIBAIDBgC9tKaERmxL8tzzz0Xe7MMWNvo9uK+ru4MxpLnuhGN+AKB8SPwwAMPZCf56sFj4481YuhVBB555JH02te+dsTsT5o0Ka255ppZ2zLig/FjINBGBGolLQZEjdzpoRECgUCgexCwbPWee+5JQVq6p046mRNaFqRkJG3LUkstlb797W93MpuRdiCQEaiuSq6VtFg5tMYaawTMgUAg0GUIUPUvv/zyadNNN+2ynEV2OoUATcsss8zSqeQj3UCgZQR22mmnxrO1khas/bHHHss7J8bS5wbG8SUQ6DgCNn6ce+6501ve8paO5yUyEAgEAoHAaBBYYoklGo/X6ohrF8XTTjstvfjii40E4ksgEAh0HgFmoTjsrvP1EDkIBAKB0SNw/fXXN16qlbSINTQsDWzjSyAQCAQCgUAgEAiME4Gzzz67EUPtpCUc/RrYxpdAIBAIBAKBQCAQGCcCVd+r2knLOPMWrwcCgUAgEAgEAoFAIDAkAkFahoQlbgYCgUAgEAgEAoFAtyEQpKXbaiTyEwgEAoFAIBAIBAJDIlA7abFyaKQNi4bMRdwMBAKBQCAQCAQCgUBgCASqnKJW0mLlkOPMZ5pppiGSjVuBQCAQCAQCgUAgEAiMDoHqAp9aN5cT8dJLLz263MTTgUAgEAgEAoFAIBAIDIPAlClTGr/UqmmhwrnrrrtiE6sGvPElEAgEAoFAIBAIBMaDwFxzzdV4vVbSYkfcc889N3bEbcAbXwKBQCAQCAQCgUBgPAicf/75jddrJS1i5c9StT81UoovgUAgEAgEAoFAIBAIjBKBq666qvFG7aSlEXN8CQQCga5BwETCqb4RAgEI/P3vf0+33nprev755wOQQKDrEajuiFurI27XlzwyGAgMAAK33357+tOf/pRe97rXNc4CsxXBAw88kA80BQFTrmuttdZKiyyyyACgEkV86aWX0l//+td05513Zr9DRFZbmWOOOdLyyy+fFlhggQApEOh6BIK0dH0VRQYDgdEhMPfcc6cnnngiXX311Vm7QsPyxje+MT3yyCPpvvvuS//6179yhBtssEGaNGnS6CKPp3sKASd7P/bYY5ms3HvvvWm22WZLSyyxRFp00UXz94cffji3iYsuuii9/vWvT29+85vzb4hMhECgGxGonbRUN4HpxgJHngKBfkdg3nnnTXvssUeaZ5550vTp07OPWTEPzTzzzPn/zTbbLG266ab9DsXAlo/Zx0pOJBWBXXDBBfMeWggtDVwJ7rtWWWWV/OzNN9+cbrnllqx1WWyxxdKSSy5ZHo3PQKArEHi59daUHSrnCIFAINBZBMya3/WudyUk5cILL2xoVzjKb7HFFmm99dbrbAYj9QlB4NFHH82kg3blDW94Q1p44YVb2vBTu6BlcdHIMRvdeOON+RLHCiuskLV1E5LpiDQQmAECNIYl1Epa7Ii79dZbx464Bd34DAQ6iID+uPnmm2e1/7Rp0/LntttumyZPntzBXEXSdSPw7LPPZn8lRIPvEh8ldYxsjCXMN998yfWPf/wja1/uvvvudMopp2Tty3LLLZd/Q4giBALtQoBZs4RaSQsVtMYeIRAIBLoDAcSFGUin54HPDBChPxBg+uGn8uCDD2ZC+pa3vCUx6VRXWoynpLR0yyyzTNa+PPXUU+kvf/lLuuSSS3L80nExN0UIBCYagfe///2NJGolLUxDVIorrrhi7kSNVOJLIBAIdBSBt771rR1NPxKvBwGalNtuuy3RflCZ81taf/31J3Tlj8nonHPOmdZee+282uzPf/5z9pexEmnWWWdNyBLn3giBwEQhwNxdQq2khROuTWCWXXbZIC0F4fjseQSQcSr4ql215wvVgwVgkiAkBy1YqsxHxb4q9ldBIPieLL744lmD1k48EBgkxfXQQw+le+65J11zzTV5pZpz55Zaaqm8hLqdeYq0+h+Bk046Ke2www65oLWSFjGW1Qn9D2OUcFAQoBY//fTTJ3Q2OyhYjrWciOPjjz+e9txzz4ERilb9MP8wAyHNlilb9eUclm7YKNC+Li4mR2SKBogWZv7558+mI6SqOkMea93He4EArV4JtZOWEnF8BgL9gsAzzzyTV09sueWW/VKknizHMccck1544YW+Jy1MP5xqn3vuubyogVaF9pp/UjcGE1XmIZe+QiNkc0MXAmPjuuqBd91YhshTdyNgdVsJQVoKEvEZCAyDAGFBLR6hswj0cz0Q9maTtHq0KFb+rLrqqj2n3Zt99tnzyiWaMfvE0BSdffbZ2Yxl2fRCCy3UVatL77///kyEORyXIO/MXhaVVFetlN/js7MIBGnpLP6ReiAQCAwoAnxVmH4ISOYVu9A6VsFmb3WtAOoUtAgmHxeXlUe0R3Zodt+qI6Yu5ex0oL1j+v3hD3+Y1lhjjZwdzs4/+tGP0pQpU9Kaa67Z6SxG+k0I1E5asNQIgUAgEAgEAkMj8PTTT2f/D2dBOVKB9oHpsV9NKMgYrZELQSurnzhV23GX6atTPjrk1d/+9rd00EEHpUMPPTQ7Oas1OwqX4y6GrsW42ykEaict4XjVqaqMdAOBQKBbEfjnP/+ZnPPDz4Pmwf4mzCVW2wzSmMk518XJmPnojjvuSDfddFPWvFiRhODQxrQrMPvaHZp25be//W3ae++9c/pIVJiE21ULM05H/ymhVtKiorfffvu8gqgkEJ+BQCAQCAwqArbE5zdR9lXhVGvPnH7VqrRaz8rvWmmllZKjBzgen3XWWfkeIkf71A5/EsLQDsJ2cv/a176W3v72t8cGjK1WYhufq55EXytpUQanyUYIBAKBQGBQEWBy4FDLFGIFEDMIfwkahgivRMDeOwiKy7EBlkwzH1mBRBvFQXaifV+sSFt33XUzceHb8r3vfe8Vh0q+MsfxXycQ2HXXXRvJ1kpadFbbPK+zzjr5sK5GKvElEAgEAoE+RsDYx+xD4NKsICpvetOb8koam8GNN/B/sZqlnPmDDD355JN5dVH11ObRpGMz0G4ygVg6XXxfyhEFl19+ec4jvxf+L56pO6g74YMf/GD66Ec/mn76059m0tJN2NRd5l6Lr9pWayUtIqbm4wFfOlevgRP5DQQCgUCgVQSQB4SCfwYSgai87W1vy/uTjNdXhabmhhtuyKdyW82y7777Zh8Q+57wjbnooovS5z//+VdoBeTlggsuSFtttVX2zRAHh9IigMvgT+tDK37cccel7bbbLjug8i9BvPiUIAc0H54XLMG2kZxw7rnn5mXLE3lSuNVFLkvBna1Ec6XMNDLyDue6nXct1/70pz+dvvCFL+Tdr5GYCN2BwJFHHpk3lpSbWkmLCG0CUzpIdxQ3chEIdA4BAsPA3yzA2NKD2Le/Xmw9zxww3rNyxEOQ8sdQv5b2brjhhrVqApCKK664Ivt5aD+2yye4aRz4yiARzZoHR03Il+dtfW5JL78Ry6sFWhnaoHe+853pE5/4RCZbn/nMZ9L++++fyY40kBbmGSc6+04TsfPOO2cn2euvvz6dccYZeUm2+9LhUMwfRd4QCWlZKrzjjjuOu4IRCRdNix2RpUH7Ykk4IuX+eFwStAUrhUrgb4TEHXjggbnc5X58dhYBjtsl1E5aSsTxGQgEAildeumleQ+Oqk3WEsvvfOc7aZNNNsmO6wWna6+9Ns8umQEIn0J4CJqqCeC8887L2sxJkyaVV/Ond5Ahgsbz/i+q72oc7hchVo3AZMNzzTNYs3fCYosttsiPF+fS1Vdfvfr6q77TPDiLbIMNNuiaDcXsh3LmmWdmU4DdWkcTYMahlkC32mTeeedNMJgoXxV1ATvaD1jaqM2hhVbY0Gg7nJYpCmnSZghx7c1v3//+93NdTp48Oe834hgAJFnd2pdE/oWvfOUr6cc//nGO+wMf+EB+1mqeI444Ih1wwAH5efGbjCJoVtj43f82w3Mm0le/+tWkTdp/BYmQT9qYOkhLtX74uMBD3mmFpIOAqQeH9CJx2v5owvve977cZ6rvOCrCSiblidAdCOgLJbz8rdyJz0AgEKgNAcKGfb4EhIFKHkE455xz8lky5RBAwvC0005LG220UZ4hE5KEA5Lwuc99Lg+iZrYEBIFLAJspGqg9d91112VHRt8JE6svCCrxvOMd70iI0x//+Md09NFHD7m0FEli7jADd3JwCfJklsvfQOAs+atf/SqbK3j1E2oGFcLDc2bryjl9+vQ866fil+8yMzeDp5noRICH+jjhhBMSgYUAjBSUjVYFWWFqodmQd+Wuw1dlpLQvu+yyvJssTGHOXMNUgjwQ2OqTAD/xxBNzfpiN1LvnCV3thqYGkfUussy84tNqGWW68847s0nk4osvTl/84hdzPdLUiIP2BclRf0z+u+22WyY56l7ZxfHlL385t2UEeqeddsrpapccWicqaN9ICg2PZeTI04UXXpi1L1ZnIW+t1s3KK6/8qmx6N47seBUsXXMjSEvXVEVkpJ8QoJ0w66VOJzx+97vf5UGdozoi8/Wvfz0Tk2984xtZWBj0CdFDDjkkkxKEg0qecLTpFUFz88035xk1kkNYFVW5WTT/AkSDatvsk2AhZJhBkBE+AAIBbND/7Gc/mwUUoSwgPmb03/rWt7LAyjdTyukQYkwMhBqhj3wQjlToBnh5scLDu2b5P/jBD7Jgp8Lnl0CdL0hL3jbffPP0yU9+siTR1k9kURnM1An7d7/73UOeHK1Myo3gwBchQyZpNEY7mx9rAfmlwJ1jqHqzAom/DLOP9iA/yKA2RcgyG2lHCIcTcZFTq2/Eg0j8/ve/z47B2oMy0ZiceuqpWfAjOQS4uLQDWhImH3G6jwgUYlo+tU3paU/qVpwCklPa1VjL3sp76pJ2xUUDxa9I+9PG5plnnpz3idKCtZq/Vp6LZ0aHQO2kRYeIEAgMOgI0FgZQ2g82eULDzJnzpBUKZvjU8f/5n/+Zhf0uu+yShSdhbrtzAsOgjKgQHNWgjxmoOQ0SRAQw50Hv/fKXv8waAbuuTp06NcdB4NCeCGbOBnSzcvFXA6FDCFWF8rRp07IAcrqwWT7HUEIKSaFN8Q4BRWgICI33aSSQK/9XBRgh25xuNQ/t+C59xAW2J598cjbRFW0XgU+YIwmII80EzVAnttUnfPmP0B6oN3WGAMIembnlllsyOVQWBAKR1BaQWct2aeOYHJFk9YQ8Izzao7rbZpttMqlRx8iueqJx2WeffTImyk0zR0tn7xS/w47mzncanGrdtqPuhktDu2Kacqk7OOh7+gTihpTBKULvI1A7aTHz6vSg1PvVEiXodQQMnlTn73nPe/IsnRbl4IMPzsKPGYgGRj/hEOlAORdTj1kxYek32hrPmuX7v1ywQQYEGoEyUWBCIKD4KbjnGepzgpkwFq/BHfFAnAjCInTELS4mg2I/9j9tBHMI4mMrA4Kq6vxZBFkhLYSheBEbQsL/gviFEnf+Z5R/xIc4HX744blsJc7RRAMXefMuLAh1RI35gx8Gp0xmsE033TSTu9HEXeezcKM5YAJh+kAgEIdCOI8//vhMutQ3cqIsCAaS413P+o22Thtk2qKxK/4aiIe4aJK0VeYy5sr3vve9+V2mIe1I8Mkcg8xwekWO+MpIpxCYOss+3riK9kX71f75/px//vmZWMsv82q1DY83veHel5b+UvrqcM/F/RkjwLxZQq2kxWBFLRkhEAgEUhYUiIIZ81FHHZVntmX1BcFp0DdrtmwVMWGb5+hIIBDurtEMrp434zYL//Wvf52dFhEOs+cSpElzQ/Pi+UJaaEdoZ5h2yiDLl8XMvviyEO4EHAFZQnlfXCUYBwi35rx7tvpueb7Vz/I+7YfvYyEtNA60YN4tccgTMqN88o64MJFw/BxLGq2WZ6TnpIto0JapM/lDbNWRNmJ1jrpiztF+BMSYY/App5ySd3ZFYtQlIkPzoH35rg1a6cRk6P6VV16ZNStIIe0TzYT74paunWtXW221rB1EpK3kQKJgKT/eK1jKR6cwa8YTaVCP8qYM6lY7ZbKU54kOcNDXpB1hfAhUfY9eHmnGF2e8HQgEAk0IHHvssXmA1OEIfsKBJoVfglUfHBkRA0KAAKHCfv/735+FC0Fl0DPgjhSQjWLO8UnICIQOAcYMVUiI+74TzoWIVOMmrJGNInT4JvCVEKd8mLUiYFUyUuIuJ+T6n2CgmUHYCAr3Sjm8r2xjCWattAp77LHHWF7P7xDcNA6ElnzxBaJVQVwIM9oJvixMLMwLCBItA8zaGdQlx1amqrJbK+JLEDNVIY8C7RptjIAIM/3AX10V0x3HaBo9xAOGVk/RQmiXNE38dHwXv7TUP0HLbIT0akOed5/WQr3ChdZLXpjW1G9pN6U95ky1+Y986FtMZ9qvvCqDflfyZVIQobcQqDpG10paDAI6BBuoDhQhEBhUBAg8gpAmxcye06RZKlMN/5XDDjssO1byXfnQhz7UgMmKGyZW6lB+MAZdAoOwMSAXAoAMCISY2a7ZsxUlReNBKBM2BEl5x/PyRPAU81Aj4ZRyGkwSZXA3cxcIAfEgOj6LcCrvEujIhMDk4HfCUH7ljQCUB2SFaYGQHEsQr3jGE4q6Hm5MWogjTEqAvft+J5StrqGdUIaypfx49gUp6bTySfvGmdqYyhwEZ6Ya9cNsp23wd+EQ7aC/Qqy0Hf5TZQM2pNOYXIJ2WNoJv6uPf/zj2UzkHgdc2hZkBFnzLIFhwzpL9P/whz/kuNSFeF1ILNOmpdPIqnaLPLUzIP7aP1KqjdBwIO2lXbYzL5FW/QggoKVN1UpaDFKcoMY7sNRf5IgxEGgvAjoYfwJkgqAWmG2YWwgTFy0LAc7BUqDp8LtDR/mPsL3TYJjVEiJm3QQLIUsjgBjxQ0AqzKoN0Oz5+qB0p0yZkgWKdwsRQRzsP7HXXnvluPRZgRAyMBA8BJGA+PjuN4HZgX+FmWsJ8swPxmFzZvKEx3777ZfTU14rWKTBbFx8KAhFRK44v5a42vWJkMgr59MqYamm7z6cXLCluULE4A9jQhEhnagAM5oO7cFKIRoQ+WYiQkqQiU996lO5/XzsYx9LP//5zzOZYBZEaBEr9Y/s2JdFHWkD6lLbQEi1SySO1kZdWFHGkZtGUNmsRuNTRTMhfcQFefNdOnyjtF9tWXv03SV/2tJEB3IGSWFGUxYkrvSXdph/Jrp8Ef/LCBhH+FQJtZIWEQ43CLycfHwLBPofATNgweqFEvibMA3RnNC22K3UqbLF3OJZv5kVU/tz3DWDtUqozPLNpqn7CQUkhqaAECWECStxmI17zgZhhIj4yozTQE/w8IloDtIuqv7m3/xPeH/kIx/J5pTyO9JStj0nYJVJ+hw5LYHeeOONs/D1PAFIA4tkEbKEqvy1MxD8sGR6QeZaCYQhfF0EJPOR5ezqjcBH4gopbCW+Vp5BLgheBMEKs9JGOM4iTwbwkn+aljJZRICZvHwiWMiv70xI4nQVE588q8+ioRGfdGiamMwKuS75pblgRjLGq0dxql/tTjzaFO0e0lJt9+X9uj61Q22JZkV5ECxkhQ9ShP5EQL8toXbSUiKOz0AgEPi3+QYOCIZZrJktx1gCyezXwGtGbakzQUgIEv7f/e53s++GfVYIpbJxl1kykwUNgH1TSmCGsTcLQmMAd24KjQZyYEZcVp0QZDQ0zAnNglbeaBSK6UnciAwhJHjeLqlMXMgPgUFjogze5UdAu8REQNNk5k6QeJYmhsaAVmD33XfPZe+EpkXebMpWVM0Fv1Y/7fvholFCIBAAJAJxsWIHIYRLHYFJsTnwu3FVQ1kt4x5iVQ20Xc3BVvUlVNNAzhDJ4YI2VAKzVTUwHZWA+NR9LpF2aMk2vH0i4cpqIhCuCAX5/v2sjlVBWvq3nqNkXYAAckFVT6CVgb6YZAy2ZhA6JIHADGQQpnqnQSnPu285LudKhMbyXP4O1UCAMv0wGRRHQ1ocA7uN7RAHQdqELuKAwJS8yAPtjY3Myj3P0xiVtGgoCEiCkBBBbrxjVo2ciLOo5ZmI+McI4pY3vyFlym31SSdCVfCOJ33kxEWLYYdahE0duYcYqe8QpuNB+N/vwha55yeDPDPL0QTRDtVFDsefy4ihnQi85v+qI9Q4UzYwWTFhtlVUl+OMMl4PBDqOgJm02V05e2ciM0RjwXxC6E1EoKWxDJSqf6jAn4HQdXVbsNTXjB5x6sbAVEYTQKPEFwjZsyKskL5uzHM35onueh27AAAcBElEQVRIQnhp/WBKI6c/VH2pujHfkaeJQ4CvXdlFu3ZNi0G3Rh40cShEzIFAFyJAGzFRhEVxZxR30dJ0ITRdnyUaNaY5F5MZ7Rfn1eL7QmPGBBPh1QjQBHLmLY61MKN1ZAqrSzv26lTjTi8iUCtpoa6jeq7axHsRlMhzIBAIBALjQaCsPKIpQF44jlpqzrnVb81+KeNJq5ffZfLh3Izk2bWZVopZE1EppsZeLl/kvR4ELEgooVbSwnZd3Q+gJBKfgUAgEAgMIgK0L/x3XHySkJerrroqLztGXvjEDKJwtkQZFsyuJrlIHOfdcCsYxF4y4zJXHcZrJS2S5ljIwS+cpGZcEfFEIBAIDA4CVry4yoorGgaCmxmEgzJnZmNnvwazZRv2KTMMLFXmW2WFXIRAYCQEqmbrWnsIR1yniL7rXe9q7CswUkbit0AgEAgEBg0BjqU0LIgKkwg/Dr4vlmHTviAx9jvpl8AxmXO5izae1olmJfx7+qWGJ74c2hCfMKFW0iJCNtxwxJ34SowUAoFAoLcRYBYpu8haxm7TOgTGxoKWTltu3qu+L1ZPWUnFV4XfChJmozw+PRECgdEiYNsG+z4JtZOWcMIdbXXE84FAIDDoCDAL0b64zCoJexsFWoJufxyrvrpdM4Go2HQPWXHMAKKCdDH/jHUzv0FvF1H+fyNQNZvWTloC5EAgEAgEAoGxI0AN7qK1tqkazYvdjfmAIADMR910XIqlykw/NoGzxT6iYnt/K4CqwmbsiMSbg45A1Uc2SMugt4Yof0sIVDtNSy/EQ7UjMGh1UHZSpmWxIaCjIBzB4BOBsXFdOTeodrBbiJA2yAZw/HKsgLL5G63QIK6GagGueKQmBIK01ARkRNO/CNj4yqzXiocInUOguldD53LRmZSZWiwJttjBrsZWHp155plpzjnnzCYlviLt0L7oB/xu+N8IyJNDQIuTZGfQiVQHCYHaSQunq3DEHaQm1P9lpebmW3DiiSf2f2G7tISII4HdiUMWuwkSPoO0GS7+I8iLfV+synEuD9NR3ccGwJ2fDfMPXxXaHWdaOU5h0Oujm9rGoOSlVtJCfbvqqqu2hfEPSgVFOTuPAGGwzz77NA4d7HyOBjMHBHOElxEohzYac5lqOMA6swepsDO51UfjCbQq5SwlB2QiKc7fkm6EQKCdCFCGlFDrgYkl0vgMBAKBQCAQaD8CtC+Ii03cmNM4xVqRZPVOKz5BVgA99NBDeQM4DrbMTw7P5K8Svirtr89I8d8IMEfSLgq1khZmIQ5jmH7MiqK5BQKBQCDQGQRoRpAPjrIIjP1gEA++J0Ntlc+Z1gogzyMunH+tVKrb1NQZNCLVfkKgVtLC9nnMMcekXXbZZciO0U/ARVkCgUAgEOgFBDiQ2zqfCckSZATGrrSODSinKtOqzDTTTHlFErIS+231Qs0OTh5vueWWtMIKK+QC1+rTMjgQRkkDgUAgEOgNBDjL2nHXZeWRU6cvvvjivFMtsxESwy+Gw3mEQKAbETj99NMbpKV2z7ZW7KbdCErkKRAIBAKBfkeA2WfDDTfM/imXXXZZ3lp/7bXXDsLS7xXf4+WbeeaZGyWonbQ0Yo4vgUAgEAgEAl2JAFOQfV2qwqArMxqZCgSaEAjS0gRI/BsIBAKBQL8jYNEErbj9byIEAr2EQJCWXqqtyGsgEAgEAhOIwCOPPJIuuuiiZPVRNdiz5ZJLLslnC1Xvx/dAoN0I1E5aYkfcdldhpBcIBAKBQD0I0MAcfvjh6ec///krIjz66KPTcccdl3clfsUP8U8g0AYEqrvs10pa7M2y/vrrxyZEbajESCIQCAQCgboRmH/++dPee++dTjrppMRRV7jxxhvTBRdckPbdd9/kDKQIgUC7EaiaMWslLWykTh6N48jbXaWRXiAQCAQC9SAwefLktNNOO6UjjzwyPfzww+nggw/OK47GeyxAPbmLWAYRgfe9732NYtdKWqhw7Kpok7kIgUAgEAgEAr2JwB577JE15nvttVc+a2jPPffszYJErvsCARrAEmolLVQ4U6dOfZUTV0ksPgOBQCAQCAS6HwGbzu266655Err77rvH0ujur7K+ziEn8BJqJS0idahWbDBX4I3PQCAQCAR6EwGHJTpw0Xb/EQKBTiIwffr0RvK1k5ZGzPElEAgEAoFAoGcRoDln6neAYoRAoJMIVA/5DNLSyZqItAOBQCAQ6FIEkBb7tVSXm3ZpViNbA4RAkJYBquwoaiAQCAQCrSJgtdCBBx6YFlpooVZfiecCgQlHIE55nnCII4FAIBAIBHoPAadDr7TSSr2X8chxXyNQu6blpZdeCnViXzeZKFwgEAj0OgL20gqzT6/X4uDkv7q5XK2aFjvibrnllskJohECgUCgexCww+lDDz0Ugqp7qqSjOXHGkPE6iEtHqyESbxGB6mnktZIWS53D/tliLcRjgUAbEbjlllvSU089lRZeeOE2phpJdSsCc801V1psscVi9/JuraDI1ysQsNlhCbWSFqzd4LjccstFZygIx2cg0CUIrLbaaqm6HXaXZCuyEQgEAoHAiAhM2JJndiebwPzzn/8cMQPxYyAQCLQfgapduP2pR4qBQCAQCIwNgdNOO63xYu2OuGxPsSNuA9/4EggEAoFAIBAIBALjQOC2225rvF07aWnEHF8CgUAgEAgEAoFAIBAYJwLVxT1BWsYJZrweCAQCgUAgEAgEAu1BIEhLe3COVAKBQCAQCAQCgUBgnAjUTlpi3f84ayReDwQCgUAgEAgEAoEhEaidtNiwKEIgEAgEAoFAIBAIBAJ1IGCn/RJqZRivfe1r03bbbZequ9eVhOIzEAgEAoFAIBAIBAKB0SKwwAILNF6pdXM5sc4+++yNyONLIBAIBAKBQCAQCAQC40Fgt912a7xeq6YlNpdr4BpfAoFAIBAIBAKBQKBmBGolLWUb/3/96181ZzOiCwQCgUAgEAgEAoFBROCYY45pFLtW0iJWm8DEjrgNfONLIBAIBAKBQCAQCIwDASfUl1A7aSkRx2cgEAh0FwIxmeiu+ojcBAKBQGsIvP71r288WLsjbiPm+BIIBAIdQeDZZ59N//jHP15x0jrTrYNMn3zyyUaemHFnnXXWVD1BtfFjfAkEAoFAoAsRCNLShZUSWQoExoPAPffck04++eT09NNPpze84Q05qv/93/9Nd9xxRzrooIPy/wjMfPPNl3bZZZe0+OKLjye5eDcQCAQCgbYhUDtpMThGCAQCgc4hsOKKKyabPJ5wwgnp8ccfT1Sr9lCyuo925cUXX0yLLrpoJiyLLbZY5zIaKQcCgUAgMEoEavdpmW222cIRd5SVEI8HAnUjsPzyy6fdd989Lbzwwqk6kfB92WWXTXvssUcKwlI36hFfIBAITAQCJlolvOb/aj4syKBoVhchEAgEOo/AAw88kDUud999d55MrLDCCmmHHXZIc889d+czFzkIBAKBQKAFBE477bS0zTbb5CdrJy0tpB+PBAKBQBsRePTRR9OJJ56YHW6333772LW6jdhHUoFAIFAvArWSFjbzadOmpY022ijv11JvViO2QCAQGAkBStPnnnsurxBCVF544YW8iki/fPDBB7OmhYblda97Xe6fVg1ZPTT//PMnZt04M2wkdOO3QCAQ6BQCVkOW8alWR1yDJnV01YbeqUJGuoHAoCBg4yUXp9vHHnssF3ueeebJRGTSpEmZoKy88srZOff5559vkBmkxkqjG2+8MZMXhGbeeefNTrpvfOMbBwW+KGcgEAh0OQJHHnlk2muvvXIuayUtYrRSITax6vIWENnrCwT+/ve/pxtuuCFrV5AMGhPkBGEZTbCi6P7770/33ntvuv3229PNN9+cHXhXWWWV2MNlNEDGs4FAIDAhCJhglVA7aSkRx2cgEAhMDAK0Ktdff302Ay211FJp8uTJaa655hpzYsxFSyyxRL5Ect9996Vbb701nXTSSWmZZZZJllCH5mXM8MaLgUAgME4Eqot7grSME8x4PRBoFwKW/V1xxRWZVCAT6623Xjbr1J2+PVwWWWSR9PDDD6drr702nXLKKWmNNdZIyy23XN1JRXyBQCAQCIwKgSAto4IrHg4EOoPAI488ki6++OKs8dhuu+2yv8pE5oSJd4EFFkjvfOc701133ZWmT5+e/Wbe/va3x5YGEwl8xB0IBAIjIlD75nIvvfRSqnnrlxELED8GAv2OwJ///Oc0derUvBnclltuOeGEpRnPJZdcMm277bbpiSeeSKeeeuorzi9qfjb+DwQCgUBgIhGolbSYnS200EIxE5vIGou4BwqBq6++Ol155ZXZFLTWWmt1rOxWIdncyXlFNnpiOooQCAQCgUA7EKg64ta6T0s7Mh9pBAKDgoBVPFYHbb755nkpcreUmxMwR12moznnnLNbshX5CAQCgT5F4JJLLskTN8WrnbTYyMphbRECgUBg7AgUP5JNN900LbjggmOPaILevPzyy/OeTIhLrCyaIJAj2kAgEHgVArWyC5vKWSZp97oIgUAgMDYELGm+7LLL0tve9rauJCxKtc466+T9YC688MJ8cvTYShpvBQKBQCAwYwQsRCihVtIi0meeeSYccQu68RkIjBIBG71deumleZM4DrDdHNZff/1Es3rNNdd0czYjb4FAINDjCBx77LGNEtROWqqbwDRSiS+BQCDQEgL8WOwqbWfbbg/6+tprr52PAnjyySe7PbuRv0AgEOhRBKq77NdOWnoUk8h2INBxBJhVb7nlltTJVUKjBcHRAfZz4ZwbIRAIBAKBiUAgSMtEoBpxBgLjROCqq67KBOBNb3rTOGNq7+urrbZa3njOWUgRAoFAIBCYSARC0zKR6EbcgUCLCDz99NN57xPn/PRamGOOOdLiiy+ebrvttl7LeuQ3EAgEegyB2kmL81FiR9weawWR3Y4jcM899+Slw0wtvRiWX3759Le//S3ZETtCIBAIBAIThUCtpIXdyeDl1NgIgUAg0BoCVuBY0sc/ZKzBqqPmMNS95mf8b6uC8U40Zp999mTXXCdERwgEAoFAoE4Eqtuo1EpabCrnQLU3vOENdeY34goE+hqB5557Lp/ns8QSS4ypnPZ0OeaYY17xLhLyi1/8Iol7pICwHH/88emvf/3rSI/N8Dd9ny/OeOOZYULxQCAQCAwcAltttVWjzLWrRJ599tk066yzpqq3byO1+BIIBAKvQuDRRx/N/WXuued+1W8zuvHPf/4zHX300WmTTTbJe6Y41BBhef755/MGdRtuuGHW4OiPNC+WVPOfsVwZ0fDc6aefnu6///7En6YceFq0pm9+85tnlIXG70gLM5dZ0cwzz9y4H18CgUAgEBgPAlVfv1pJi1nbySefnHbaaac0yyyzjCeP8W4gMDAIIC1MQ2Mh+hdffHE+9XnnnXfOPiXf+MY3stZGXIjI/vvvn821SMq6666bHDyG2Mw000wZX6QHcbn33nsTfzQB6fEcB9vRkBbmIVrWxx9/PB+cOjAVGAUNBAKBCUXgL3/5S1pmmWVyGrWSFjGyz0cIBAKB1hFAHMZyfo8N3c4+++z0wQ9+MDkN+oorrkjvfe97M+kQ5+GHH57e85735EMNTSjssGuVjx13Oc3yPaMV4Yey2GKLpaWXXrrRf50pNNqJh03xSpytlz6eDAQCgUBgZAQoQ/bbb7/8UO2kZSyzxZGzG78GAv2NAOIw77zzjrqQiMqNN96Yvve976UHH3wwfepTn8rnAdF06Ic0KILvZVmy//m6IBezzTZbNgfZX4VZqDjROsF5oYUWyucLjSZTQVpGg1Y8GwgEAq0iUDU3105aWs1EPBcIBAL/RoCzLAIx2mDn3O9+97vpsMMOSx/96EfTlltumQ499NC80RtSYtO36667LvuyMD+tvvrqeaXQXHPNlb74xS9mIsO/xTt8YhyCyM8FCeKbNtrg3eInM9p34/lAIBAIBFpBIEhLKyjFM4HABCHAf4QppzqTaDWpOeecM02fPj3NN9982R+FfwvHW86wzEEIhPiZbMsuu+7xofnKV76SkBdp33777VnLctZZZ+VnHYAonrEE8RffmLG8H+8EAoFAIDASAkFaRkInfgsE2oQAcjHacNNNN6Wf/exn2fmViWfzzTdPF154YfZtWWSRRTJhYRp66KGHsvlp8uTJ2VS05ppr5oMOrSZiK37qqacygfE735YFF1ww2XdlLEF6rgiBQCAQCEwEArWTFvb5sQzAE1G4iDMQ6HYECHhOuExEo/Vr4Tj77W9/O/c3BMQGdTQnu+66a5oyZUqj6LQxv/vd77LfCr+TT3/601nbctRRR6W3vvWtmaTQ1tiG314xfh9roOEZK+EZa5rxXiAQCPQ3AlVOUStpoRq2rDI2l+vvBhSlqxcBq3RmtAncUCnSrpx33nnpgQceyD/TkHCoveGGGzJx0NGRIidHIzOWPd91111p2rRp2YGXCWiLLbZIP/nJT9Iaa6yRVxJZcUTbsu2226Zll112qGSHvYewIE9jWQk1bKTxQyAQCAw8AsaVEmolLQbIlVZaqcQdn4FAINACAvZMoaEcbbBs2QqhTTfdNC9XtqT5wAMPzCYiDrZ8WYoPi6XOVhgdfPDB2efESiNHbiBLzzzzTP60m7V9WY444oj01a9+Ne21115p4403bjlbCBPiUvaAafnFeDAQCAQCgREQsHVDCa/5v6repdwd46eo2M+tVDBYRggEAoEZI2CFD5IxWudXBIH2pBosWzZ5qO6uayUQcrLwwgvnTeRoZMpqJaTnxBNPTPxckJgSaGc8b6l0q0EZLrroosQ3ZjznKLWaXjwXCAQCg4dArZoWM7szzjgjb3A12o2pBg/6KHEg8G8ECHhn9gxFQkbCqJmweHbRRRd91StVc03zDrd+q/q/lJdXWGGF8rXlT/vDMENVCVPLL8eDgUAgEAgMg8CVV16ZJ0N+rl0dwtEvQiAQCLSOACHPD4yPSi8H5ioOvfaIiRAIBAKBQF0IXHDBBY2oaictjZjjSyAQCLSEAK2kPVfuvvvulp7vxoc4yvGZadbkdGNeI0+BQCDQWwhULTdBWnqr7iK3fYoAPxNnCVW95HupqExDzFvhy9JLtRZ5DQR6D4EgLb1XZ5HjPkTA6p5yeGEvFs8ZSMowlJ9NL5Yn8hwIBALdiUCQlu6sl8jVgCFgmbB9UexyS2PRS4EvC01LdfVRL+U/8hoIBAK9g0DtpMXqgRpXUfcOkpHTQGCcCKy44op5czgriXolIFi0LEsttVSaNGlSr2Q78hkIBAI9hICVySXUSlrszbLZZpvF5lIF3fgMBEaBgP5jv5Trr78+k5dRvNqxRzkP25xu5ZVX7lgeIuFAIBDobwSqq5Jr3Vyuv2GL0gUCE4+AGcU555yTT33eYIMNJj7BcaRg07ozzzwzrbLKKmm55ZYbR0zxaiAQCAQCwyNgYlTONKtV08Is5Jj7Xl0BMTxk8Usg0B4EaFtsp//www+na665pj2JjiEVTsPIldOkg7CMAcB4JRAIBFpGoBAWL9RKWswSbePNryVCIBAIjA2BWWedNb3jHe/IEwDb6Xdb4Mdy/vnnJ/lcZ511ui17kZ9AIBDoMwSmTp3aKFGtpEWsVkE4+yRCIBAIjB0Bm80xD9G23HrrrWOPqOY3aVGdLO3TYYrR12sGOKILBAKBVyHA2b+E2klLiTg+A4FAYHwIOLBw/fXXT1dffXVy9kanV+U99dRT6bTTTsv7ydAExXb946vfeDsQCARaQ2DmmWduPBiHhDSgiC+BQPchsMQSS+SlxM7eeOSRR/JJ0OWE5nbm1iqh6dOn5w3kmIRiE7l2oh9pBQKBQEEgNC0FifgMBLoUAQcqbrPNNsmJzDQd5UTodmTXCqHLLrssExbLsTkJB2FpB/KRRiAQCAyFQO2alk6rsIcqZNwLBHodAadA8yHh38Jc5NMOtEsvvfSEFM3qIE7ACBKytMUWW6R55plnQtKKSAOBQCAQaBWBIC2tIhXPBQJdgEAhKgjFddddl4mFnXTrOPfHhANZufnmm9Odd96ZVwettdZaackll+yCkkcWAoFAYFARqG6jUuvmcgY9J9XOMcccyX4TEQKBQGDiEHj++efTHXfckS/bDMw333xpoYUWyp+WI9tFcjhnWX3VQPDiiy/mHW0feuihdP/99+fvNCr2XkGEIgQCgUAg0GkEjjjiiLTnnnvmbNRKWjpdsEg/EBhEBJCPp59+Ot13333p3nvvTS+88ELePZJJCWnhg1LISyEr3nHRrLj4zXD6XXDBBbM5KJYyD2JLijIHAt2JgHGrjEm1khaby9lXYrXVVsuzvO4sfuQqEOhvBJAWO+r6dNGm+LQpHCIzyyyz5P2UfNppcoEFFmgMCP2NTJQuEAgEeh2BWn1asCGHvbGxVw846nWQIv+BQC8hgIyEaaeXaizyGggEAiMh8Pvf/z69+93vzo/U7nhiE5iixhkpE/FbIBAIBAKBQCAQCAQCM0KA6buE2klLiTg+A4FAIBAIBAKBQCAQGC8CzNolBGkpSMRnIBAIBAKBQCAQCHQ1AkFaurp6InOBQCAQCAQCgUAgUBAI0lKQiM9AIBAIBAKBQCAQ6GoEal09VEpaNpbj8fvAAw+8aiWRjbCWWmqptP322yffjz766OSMk+YzTSzTnDx5cj4k7rHHHkvHHntsTqLZ0ddzW265ZVp55ZXztuMnn3xyXtJZ8uOz7E+xyy67pEUWWSQvzT7vvPPy8s/m5+xpMWXKlLwcdNq0aemGG25I1VMmPW+Pi7nmmivtvvvueSO9P/zhD3lzruZVU6Mp69prr5022mijNKOy2lJ9lVVWybuWKmvV3jfassJcWSdNmpTOOeecvPprPGW1e+oOO+yQXnrppXTUUUcNW6+lrI8//ng65phjchUMVa+lrHfddVc66aSTXlVWL0pr5513Tosuumi69tpr07nnnjtkvSrrbrvtljc/HKmsc845Z9pjjz1yvR5//PF5/5Oh6tW+JjvuuGNOXxt+5plnhmzDpaxPPPFELmt1z4Fc8JTykuTNN988rbrqqsnhhCeeeOKwZd1pp53SYostlnfEVQ6rhapB/PqgerXR44zKqg3DppWyavfKal+YofqrHXQdN2CTyd/85je53w1Vr6Ws99xzTzrhhBOGLSt8rYSy++9IZVWv6k3de7a5DVvuDYtSVmlKu7nv6K+lXr2jrE63bi6rvW3WWGONtMkmm+SyasO2fBiqrJtttlneBmKkskpXvSqrFZjGnaHqVfzqVVmNX9r7jMqqLWlTQ5VVetItZVVvZU+f0qaUdfXVV0+bbrppxkK9DldWp397Vlml29xvxKms6hXOxtazzz57hmU9//zz8/EVzZjIt7FLvcr3cGU1RhgfjBPybmwarqy27FAO9T5SWeGhDdgbSXsarqzGQ+PijMqqDZMpDke96qqrXoWJstqiQFmlZTw0LjbX61jLqg1LY6g2rJ07e4xDrHFiRmW98cYb09SpU19VBmOToKz2hhqprA6GNQ43p1XrPi2lkcdnIBAIBAKBQCAQCAQCdSMQ5qG6EY34AoFAIBAIBAKBQGBCEPh/vcty8Nk5deYAAAAASUVORK5CYII=;" vertex="1" parent="1">
          <mxGeometry x="300" y="90" width="557" height="540" as="geometry"/>
        </mxCell>
        <mxCell id="KrK7GOKBKflkeKm778M2-10" style="edgeStyle=orthogonalEdgeStyle;rounded=0;orthogonalLoop=1;jettySize=auto;html=1;entryX=0.5;entryY=0;entryDx=0;entryDy=0;" edge="1" parent="1" source="KrK7GOKBKflkeKm778M2-2" target="KrK7GOKBKflkeKm778M2-5">
          <mxGeometry relative="1" as="geometry"/>
        </mxCell>
        <mxCell id="KrK7GOKBKflkeKm778M2-2" value="添加" style="ellipse;whiteSpace=wrap;html=1;aspect=fixed;" vertex="1" parent="1">
          <mxGeometry x="560" y="680" width="80" height="80" as="geometry"/>
        </mxCell>
        <mxCell id="KrK7GOKBKflkeKm778M2-20" style="edgeStyle=orthogonalEdgeStyle;rounded=0;orthogonalLoop=1;jettySize=auto;html=1;entryX=0;entryY=0.5;entryDx=0;entryDy=0;" edge="1" parent="1" source="KrK7GOKBKflkeKm778M2-3" target="KrK7GOKBKflkeKm778M2-2">
          <mxGeometry relative="1" as="geometry">
            <Array as="points">
              <mxPoint x="380" y="720"/>
            </Array>
          </mxGeometry>
        </mxCell>
        <mxCell id="KrK7GOKBKflkeKm778M2-3" value="表单输入" style="rounded=0;whiteSpace=wrap;html=1;" vertex="1" parent="1">
          <mxGeometry x="330" y="760" width="120" height="60" as="geometry"/>
        </mxCell>
        <mxCell id="KrK7GOKBKflkeKm778M2-22" style="edgeStyle=orthogonalEdgeStyle;rounded=0;orthogonalLoop=1;jettySize=auto;html=1;" edge="1" parent="1" source="KrK7GOKBKflkeKm778M2-4" target="KrK7GOKBKflkeKm778M2-3">
          <mxGeometry relative="1" as="geometry"/>
        </mxCell>
        <mxCell id="KrK7GOKBKflkeKm778M2-4" value="校验提示" style="rounded=0;whiteSpace=wrap;html=1;" vertex="1" parent="1">
          <mxGeometry x="330" y="850" width="120" height="50" as="geometry"/>
        </mxCell>
        <mxCell id="KrK7GOKBKflkeKm778M2-8" value="N" style="edgeStyle=orthogonalEdgeStyle;rounded=0;orthogonalLoop=1;jettySize=auto;html=1;entryX=1;entryY=0.5;entryDx=0;entryDy=0;" edge="1" parent="1" source="KrK7GOKBKflkeKm778M2-5" target="KrK7GOKBKflkeKm778M2-4">
          <mxGeometry relative="1" as="geometry"/>
        </mxCell>
        <mxCell id="KrK7GOKBKflkeKm778M2-9" value="Y" style="edgeStyle=orthogonalEdgeStyle;rounded=0;orthogonalLoop=1;jettySize=auto;html=1;entryX=0.5;entryY=0;entryDx=0;entryDy=0;" edge="1" parent="1" source="KrK7GOKBKflkeKm778M2-5" target="KrK7GOKBKflkeKm778M2-6">
          <mxGeometry relative="1" as="geometry"/>
        </mxCell>
        <mxCell id="KrK7GOKBKflkeKm778M2-5" value="数据校验" style="rhombus;whiteSpace=wrap;html=1;" vertex="1" parent="1">
          <mxGeometry x="560" y="835" width="80" height="80" as="geometry"/>
        </mxCell>
        <mxCell id="KrK7GOKBKflkeKm778M2-23" style="edgeStyle=orthogonalEdgeStyle;rounded=0;orthogonalLoop=1;jettySize=auto;html=1;entryX=1;entryY=0.5;entryDx=0;entryDy=0;" edge="1" parent="1" source="KrK7GOKBKflkeKm778M2-6" target="KrK7GOKBKflkeKm778M2-12">
          <mxGeometry relative="1" as="geometry"/>
        </mxCell>
        <mxCell id="KrK7GOKBKflkeKm778M2-6" value="权限拦截" style="rounded=0;whiteSpace=wrap;html=1;" vertex="1" parent="1">
          <mxGeometry x="540" y="960" width="120" height="60" as="geometry"/>
        </mxCell>
        <mxCell id="KrK7GOKBKflkeKm778M2-11" value="提交" style="text;html=1;strokeColor=none;fillColor=none;align=center;verticalAlign=middle;whiteSpace=wrap;rounded=0;" vertex="1" parent="1">
          <mxGeometry x="610" y="780" width="40" height="20" as="geometry"/>
        </mxCell>
        <mxCell id="KrK7GOKBKflkeKm778M2-24" value="N" style="edgeStyle=orthogonalEdgeStyle;rounded=0;orthogonalLoop=1;jettySize=auto;html=1;entryX=0.5;entryY=1;entryDx=0;entryDy=0;" edge="1" parent="1" source="KrK7GOKBKflkeKm778M2-12" target="KrK7GOKBKflkeKm778M2-4">
          <mxGeometry relative="1" as="geometry"/>
        </mxCell>
        <mxCell id="KrK7GOKBKflkeKm778M2-25" style="edgeStyle=orthogonalEdgeStyle;rounded=0;orthogonalLoop=1;jettySize=auto;html=1;exitX=0.5;exitY=1;exitDx=0;exitDy=0;" edge="1" parent="1" source="KrK7GOKBKflkeKm778M2-12" target="KrK7GOKBKflkeKm778M2-13">
          <mxGeometry relative="1" as="geometry">
            <Array as="points">
              <mxPoint x="390" y="1040"/>
              <mxPoint x="600" y="1040"/>
            </Array>
          </mxGeometry>
        </mxCell>
        <mxCell id="KrK7GOKBKflkeKm778M2-26" value="Y" style="text;html=1;align=center;verticalAlign=middle;resizable=0;points=[];labelBackgroundColor=#ffffff;" vertex="1" connectable="0" parent="KrK7GOKBKflkeKm778M2-25">
          <mxGeometry x="-0.2519" y="1" relative="1" as="geometry">
            <mxPoint as="offset"/>
          </mxGeometry>
        </mxCell>
        <mxCell id="KrK7GOKBKflkeKm778M2-12" value="权限判断" style="rhombus;whiteSpace=wrap;html=1;" vertex="1" parent="1">
          <mxGeometry x="350" y="950" width="80" height="80" as="geometry"/>
        </mxCell>
        <mxCell id="KrK7GOKBKflkeKm778M2-28" style="edgeStyle=orthogonalEdgeStyle;rounded=0;orthogonalLoop=1;jettySize=auto;html=1;entryX=0.5;entryY=0;entryDx=0;entryDy=0;" edge="1" parent="1" source="KrK7GOKBKflkeKm778M2-13" target="KrK7GOKBKflkeKm778M2-16">
          <mxGeometry relative="1" as="geometry">
            <Array as="points"/>
          </mxGeometry>
        </mxCell>
        <mxCell id="KrK7GOKBKflkeKm778M2-13" value="报警方案信息" style="rounded=0;whiteSpace=wrap;html=1;" vertex="1" parent="1">
          <mxGeometry x="540" y="1080" width="120" height="60" as="geometry"/>
        </mxCell>
        <mxCell id="KrK7GOKBKflkeKm778M2-15" style="edgeStyle=orthogonalEdgeStyle;rounded=0;orthogonalLoop=1;jettySize=auto;html=1;entryX=0;entryY=0.5;entryDx=0;entryDy=0;dashed=1;" edge="1" parent="1" source="KrK7GOKBKflkeKm778M2-14" target="KrK7GOKBKflkeKm778M2-13">
          <mxGeometry relative="1" as="geometry"/>
        </mxCell>
        <mxCell id="KrK7GOKBKflkeKm778M2-14" value="UUID，创建人，创建时间，报警方案编号" style="rounded=0;whiteSpace=wrap;html=1;" vertex="1" parent="1">
          <mxGeometry x="330" y="1080" width="120" height="60" as="geometry"/>
        </mxCell>
        <mxCell id="KrK7GOKBKflkeKm778M2-29" value="N" style="edgeStyle=orthogonalEdgeStyle;rounded=0;orthogonalLoop=1;jettySize=auto;html=1;exitX=1;exitY=0.5;exitDx=0;exitDy=0;" edge="1" parent="1" source="KrK7GOKBKflkeKm778M2-16" target="KrK7GOKBKflkeKm778M2-17">
          <mxGeometry relative="1" as="geometry">
            <Array as="points">
              <mxPoint x="797" y="1209"/>
            </Array>
          </mxGeometry>
        </mxCell>
        <mxCell id="KrK7GOKBKflkeKm778M2-34" value="Y" style="edgeStyle=orthogonalEdgeStyle;rounded=0;orthogonalLoop=1;jettySize=auto;html=1;" edge="1" parent="1" source="KrK7GOKBKflkeKm778M2-16" target="KrK7GOKBKflkeKm778M2-19">
          <mxGeometry relative="1" as="geometry"/>
        </mxCell>
        <mxCell id="KrK7GOKBKflkeKm778M2-16" value="数据添加" style="rhombus;whiteSpace=wrap;html=1;" vertex="1" parent="1">
          <mxGeometry x="560" y="1169" width="80" height="80" as="geometry"/>
        </mxCell>
        <mxCell id="KrK7GOKBKflkeKm778M2-30" style="edgeStyle=orthogonalEdgeStyle;rounded=0;orthogonalLoop=1;jettySize=auto;html=1;" edge="1" parent="1" source="KrK7GOKBKflkeKm778M2-17" target="KrK7GOKBKflkeKm778M2-18">
          <mxGeometry relative="1" as="geometry">
            <Array as="points">
              <mxPoint x="800" y="910"/>
              <mxPoint x="800" y="910"/>
            </Array>
          </mxGeometry>
        </mxCell>
        <mxCell id="KrK7GOKBKflkeKm778M2-17" value="异常处理" style="rounded=0;whiteSpace=wrap;html=1;" vertex="1" parent="1">
          <mxGeometry x="737" y="960" width="120" height="60" as="geometry"/>
        </mxCell>
        <mxCell id="KrK7GOKBKflkeKm778M2-21" style="edgeStyle=orthogonalEdgeStyle;rounded=0;orthogonalLoop=1;jettySize=auto;html=1;entryX=1;entryY=0.5;entryDx=0;entryDy=0;" edge="1" parent="1" source="KrK7GOKBKflkeKm778M2-18" target="KrK7GOKBKflkeKm778M2-2">
          <mxGeometry relative="1" as="geometry">
            <Array as="points">
              <mxPoint x="800" y="720"/>
            </Array>
          </mxGeometry>
        </mxCell>
        <mxCell id="KrK7GOKBKflkeKm778M2-18" value="数据回滚" style="rounded=0;whiteSpace=wrap;html=1;" vertex="1" parent="1">
          <mxGeometry x="727" y="760" width="120" height="60" as="geometry"/>
        </mxCell>
        <mxCell id="KrK7GOKBKflkeKm778M2-27" value="添加" style="text;html=1;strokeColor=none;fillColor=none;align=center;verticalAlign=middle;whiteSpace=wrap;rounded=0;" vertex="1" parent="1">
          <mxGeometry x="460" y="1090" width="40" height="20" as="geometry"/>
        </mxCell>
        <mxCell id="KrK7GOKBKflkeKm778M2-19" value="结束" style="ellipse;whiteSpace=wrap;html=1;aspect=fixed;" vertex="1" parent="1">
          <mxGeometry x="560" y="1290" width="80" height="80" as="geometry"/>
        </mxCell>
      </root>
    </mxGraphModel>
  </diagram>
</mxfile>
